<svg width="24" height="24" viewBox="0 0 24 24" fill="none" xmlns="http://www.w3.org/2000/svg">
<g clip-path="url(#clip0)">
<path d="M19.6146 14.6603L19.5977 12.6027L20.4906 12.5952C20.5791 12.596 20.6669 12.5791 20.7488 12.5456C20.8307 12.5121 20.9052 12.4627 20.9678 12.4001C21.0304 12.3375 21.0799 12.2631 21.1135 12.1812C21.147 12.0992 21.1639 12.0115 21.1632 11.9229C21.1624 11.8344 21.1441 11.7469 21.1092 11.6656C21.0742 11.5842 21.0235 11.5107 20.9598 11.4491C20.8962 11.3876 20.8209 11.3394 20.7384 11.3073C20.6559 11.2752 20.5678 11.2598 20.4793 11.2621L19.5865 11.2696L19.5688 9.212C19.5482 8.5787 19.2847 7.97762 18.8329 7.53336C18.3811 7.0891 17.7756 6.83574 17.1421 6.8258C16.826 6.82832 16.5135 6.89312 16.2224 7.01649C15.9313 7.13986 15.6674 7.31938 15.4458 7.54479C15.2241 7.77019 15.0491 8.03707 14.9306 8.33017C14.8122 8.62326 14.7526 8.93683 14.7554 9.25294L14.7727 11.3101L9.21601 11.3568L9.19823 9.2992C9.17764 8.6659 8.91413 8.06482 8.46234 7.62056C8.01054 7.1763 7.40511 6.92294 6.77156 6.913C6.45544 6.91553 6.14292 6.98033 5.85186 7.1037C5.5608 7.22706 5.2969 7.40658 5.07526 7.63199C4.85361 7.8574 4.67855 8.12427 4.5601 8.41737C4.44164 8.71046 4.38211 9.02403 4.38489 9.34014L4.40219 11.3973L3.50938 11.4048C3.42086 11.404 3.33307 11.4208 3.25113 11.4543C3.16919 11.4878 3.09474 11.5373 3.03213 11.5999C2.96952 11.6625 2.92 11.7369 2.88645 11.8188C2.85291 11.9007 2.83602 11.9885 2.83676 12.077C2.8375 12.1656 2.85587 12.253 2.89079 12.3344C2.9257 12.4157 2.97647 12.4893 3.04013 12.5508C3.10378 12.6123 3.17905 12.6606 3.26155 12.6927C3.34404 12.7248 3.4321 12.7402 3.52059 12.7379L4.4134 12.7304L4.43118 14.788C4.43376 15.104 4.49859 15.4164 4.62196 15.7074C4.74532 15.9984 4.92481 16.2622 5.15016 16.4838C5.37551 16.7054 5.64231 16.8804 5.93532 16.9989C6.22833 17.1173 6.54181 17.1769 6.85785 17.1742C7.17391 17.1717 7.48638 17.1069 7.7774 16.9836C8.06841 16.8602 8.33227 16.6807 8.55388 16.4554C8.77549 16.23 8.95051 15.9632 9.06893 15.6701C9.18735 15.3771 9.24686 15.0636 9.24405 14.7475L9.22675 12.6904L14.7868 12.646L14.8041 14.7031C14.8067 15.0191 14.8715 15.3316 14.9949 15.6225C15.1182 15.9135 15.2977 16.1773 15.5231 16.3989C15.7484 16.6205 16.0152 16.7956 16.3082 16.914C16.6012 17.0325 16.9147 17.092 17.2308 17.0893C17.5468 17.0868 17.8593 17.022 18.1503 16.8987C18.4413 16.7754 18.7052 16.5959 18.9268 16.3705C19.1484 16.1451 19.3234 15.8783 19.4418 15.5853C19.5603 15.2922 19.6198 14.9787 19.617 14.6626L19.6146 14.6603ZM7.60293 15.5208C7.50429 15.6215 7.38666 15.7017 7.25685 15.7566C7.12704 15.8116 6.98761 15.8403 6.84664 15.8411C6.56388 15.8372 6.29353 15.7244 6.0919 15.5261C5.89027 15.3278 5.77291 15.0594 5.76426 14.7768L5.71845 9.32846C5.71605 9.04379 5.82684 8.76983 6.02644 8.56684C6.22604 8.36386 6.4981 8.24848 6.78277 8.24608C7.06744 8.24369 7.3414 8.35448 7.54439 8.55408C7.74737 8.75368 7.86275 9.02574 7.86515 9.31041L7.91096 14.7587C7.91257 14.8998 7.88617 15.0398 7.8333 15.1706C7.78042 15.3014 7.70212 15.4204 7.60293 15.5208ZM17.2172 15.7539C16.9344 15.75 16.6641 15.6372 16.4624 15.4389C16.2608 15.2406 16.1434 14.9722 16.1348 14.6896L16.089 9.24126C16.0878 9.1003 16.1144 8.9605 16.1672 8.82982C16.2201 8.69914 16.2981 8.58015 16.397 8.47964C16.4958 8.37913 16.6135 8.29907 16.7432 8.24404C16.873 8.189 17.0124 8.16007 17.1533 8.15888C17.2943 8.1577 17.4341 8.18429 17.5647 8.23713C17.6954 8.28998 17.8144 8.36804 17.9149 8.46688C18.0154 8.56571 18.0955 8.68337 18.1505 8.81314C18.2056 8.94291 18.2345 9.08225 18.2357 9.22321L18.2815 14.6715C18.2828 14.8125 18.2562 14.9523 18.2034 15.0831C18.1506 15.2138 18.0726 15.3328 17.9737 15.4333C17.8749 15.5339 17.7572 15.6139 17.6273 15.6689C17.4975 15.7239 17.3582 15.7528 17.2172 15.7539Z" fill="#F7F8FC"/>
</g>
<defs>
<clipPath id="clip0">
<rect width="16" height="16" fill="white" transform="translate(11.9048 0.686707) rotate(44.5182)"/>
</clipPath>
</defs>
</svg>
