<svg width="16" height="16" viewBox="0 0 16 16" fill="none" xmlns="http://www.w3.org/2000/svg">
<path d="M9.41177 12.549H3.13725C2.30551 12.548 1.50811 12.2172 0.919981 11.629C0.331848 11.0409 0.000996303 10.2435 0 9.41177L0 3.13725C0.000996303 2.30551 0.331848 1.50811 0.919981 0.919981C1.50811 0.331848 2.30551 0.000996303 3.13725 0L9.41177 0C10.2435 0.000996303 11.0409 0.331848 11.629 0.919981C12.2172 1.50811 12.548 2.30551 12.549 3.13725V9.41177C12.548 10.2435 12.2172 11.0409 11.629 11.629C11.0409 12.2172 10.2435 12.548 9.41177 12.549ZM3.13725 1.2549C2.63802 1.2549 2.15924 1.45322 1.80623 1.80623C1.45322 2.15924 1.2549 2.63802 1.2549 3.13725V9.41177C1.2549 9.911 1.45322 10.3898 1.80623 10.7428C2.15924 11.0958 2.63802 11.2941 3.13725 11.2941H9.41177C9.911 11.2941 10.3898 11.0958 10.7428 10.7428C11.0958 10.3898 11.2941 9.911 11.2941 9.41177V3.13725C11.2941 2.63802 11.0958 2.15924 10.7428 1.80623C10.3898 1.45322 9.911 1.2549 9.41177 1.2549H3.13725ZM15.0588 11.9216V3.76471C15.0588 3.5983 14.9927 3.4387 14.875 3.32103C14.7574 3.20336 14.5978 3.13725 14.4314 3.13725C14.265 3.13725 14.1054 3.20336 13.9877 3.32103C13.87 3.4387 13.8039 3.5983 13.8039 3.76471V11.9216C13.8039 12.4208 13.6056 12.8996 13.2526 13.2526C12.8996 13.6056 12.4208 13.8039 11.9216 13.8039H3.76471C3.5983 13.8039 3.4387 13.87 3.32103 13.9877C3.20336 14.1054 3.13725 14.265 3.13725 14.4314C3.13725 14.5978 3.20336 14.7574 3.32103 14.875C3.4387 14.9927 3.5983 15.0588 3.76471 15.0588H11.9216C12.7533 15.0578 13.5507 14.727 14.1388 14.1388C14.727 13.5507 15.0578 12.7533 15.0588 11.9216Z" fill="#F7F8FC"/>
</svg>
