<svg width="124" height="124" viewBox="0 0 95 95" fill="none" xmlns="http://www.w3.org/2000/svg">
<g clip-path="url(#clip0)">
<path d="M49.0714 15.0589L46.799 0H13.4597C8.43948 0 4.45312 4.09015 4.45312 9.10977V72.154C4.45312 77.1736 8.43948 81.1808 13.4597 81.1808H45.085L67.869 46.6836V22.0824L49.0714 15.0589Z" fill="#2AB7CA"/>
<path d="M46.7991 0.020874L67.807 22.0824H53.8226C49.9389 22.0824 46.7991 18.9426 46.7991 15.0589V0.020874Z" fill="#228597"/>
<path d="M46.0146 47.3035H19.0784C17.9425 47.3035 17.0125 48.2335 17.0125 49.3694C17.0125 50.5059 17.9425 51.4348 19.0784 51.4348H45.9937C47.1296 51.4348 48.0597 50.5059 48.0597 49.3694C48.0597 48.2335 47.1511 47.3035 46.0146 47.3035Z" fill="#228597"/>
<path d="M19.0784 41.1068H40.0035C41.1394 41.1068 42.0694 40.1773 42.0694 39.0408C42.0694 37.9049 41.1394 36.9755 40.0035 36.9755H19.0784C17.9425 36.9755 17.0125 37.9049 17.0125 39.0408C17.0125 40.1773 17.9425 41.1068 19.0784 41.1068Z" fill="#228597"/>
<path d="M39.1975 57.8385H19.0784C17.9425 57.8385 17.0125 58.7686 17.0125 59.9039C17.0125 61.0403 17.9425 61.9698 19.0784 61.9698H39.1975C40.334 61.9698 41.2634 61.0403 41.2634 59.9039C41.2634 58.7686 40.334 57.8385 39.1975 57.8385Z" fill="#228597"/>
<path d="M44.1481 85.8088C35.7162 76.0027 35.5739 61.2439 44.3579 51.2539C53.9605 40.333 70.6068 39.263 81.5277 48.8656C89.0356 55.4672 91.8991 65.412 89.8058 74.519C88.8571 78.6634 86.9024 82.6382 83.9014 86.0512C74.2988 96.9721 57.6525 98.0413 46.7316 88.4387C45.8144 87.6044 44.9543 86.7377 44.1481 85.8088Z" fill="#7CD1DE"/>
<path d="M74.8181 68.1273L66.3282 77.2777V54.721C66.3282 53.5851 65.3987 52.655 64.2622 52.655C63.1263 52.655 62.1969 53.5851 62.1969 54.721V77.2777L53.6449 68.1273C52.8598 67.3011 51.5378 67.2384 50.7115 68.0235C49.8852 68.8086 49.8238 70.1103 50.6077 70.9366L62.6926 83.929C63.0846 84.3424 63.6221 84.59 64.2002 84.59C64.7783 84.59 65.3152 84.3424 65.7083 83.929L77.7921 70.9366C78.5772 70.1103 78.5354 68.7883 77.7092 68.0235C76.8841 67.2384 75.6032 67.3011 74.8181 68.1273Z" fill="white"/>
</g>
<defs>
<clipPath id="clip0">
<rect width="124" height="124" fill="white"/>
</clipPath>
</defs>
</svg>
