<svg width="124" height="124" viewBox="0 0 124 124" fill="none" xmlns="http://www.w3.org/2000/svg">
<g clip-path="url(#clip0)">
<path d="M64.051 19.6558L61.085 0H17.5684C11.0157 0 5.8125 5.33872 5.8125 11.8907V94.1799C5.8125 100.732 11.0157 105.962 17.5684 105.962H58.8478L88.5869 60.9344V28.8233L64.051 19.6558Z" fill="#2AB7CA"/>
<path d="M61.085 0.0272217L88.506 28.8233H70.2526C65.1833 28.8233 61.085 24.725 61.085 19.6558V0.0272217Z" fill="#228597"/>
<path d="M60.061 61.7434H24.9022C23.4195 61.7434 22.2056 62.9574 22.2056 64.44C22.2056 65.9234 23.4195 67.1359 24.9022 67.1359H60.0337C61.5164 67.1359 62.7303 65.9234 62.7303 64.44C62.7303 62.9574 61.5444 61.7434 60.061 61.7434Z" fill="#228597"/>
<path d="M24.9022 53.6552H52.2149C53.6975 53.6552 54.9115 52.4419 54.9115 50.9585C54.9115 49.4759 53.6975 48.2627 52.2149 48.2627H24.9022C23.4195 48.2627 22.2056 49.4759 22.2056 50.9585C22.2056 52.4419 23.4195 53.6552 24.9022 53.6552Z" fill="#228597"/>
<path d="M51.1629 75.4944H24.9022C23.4195 75.4944 22.2056 76.7083 22.2056 78.1902C22.2056 79.6736 23.4195 80.8868 24.9022 80.8868H51.1629C52.6463 80.8868 53.8595 79.6736 53.8595 78.1902C53.8595 76.7083 52.6463 75.4944 51.1629 75.4944Z" fill="#228597"/>
<path d="M57.625 112.003C46.6191 99.2035 46.4334 79.9393 57.8988 66.8998C70.4328 52.6452 92.1606 51.2485 106.415 63.7824C116.215 72.3993 119.953 85.3798 117.22 97.2668C115.982 102.676 113.431 107.864 109.514 112.319C96.9796 126.574 75.2517 127.97 60.9971 115.436C59.7999 114.347 58.6772 113.215 57.625 112.003Z" fill="#7CD1DE"/>
<path d="M72.9743 80.9084L89.183 79.2564L69.7414 101.367C68.7624 102.48 68.8719 104.193 69.9859 105.173C71.0993 106.152 72.812 106.041 73.791 104.928L93.2326 82.8172L93.7288 99.1576C93.7862 100.644 95.0281 101.845 96.5147 101.788C98.0013 101.73 99.1835 100.507 99.1272 99.0216L98.4794 75.8702C98.4515 75.1271 98.1381 74.4211 97.5714 73.9229C97.0047 73.4246 96.265 73.2045 95.5234 73.2709L72.4805 75.5914C70.9988 75.7246 69.9002 77.0565 70.051 78.5183C70.1831 79.999 71.4926 81.0416 72.9743 80.9084Z" fill="white"/>
</g>
<defs>
<clipPath id="clip0">
<rect width="124" height="124" fill="white"/>
</clipPath>
</defs>
</svg>
