<svg width="14" height="14" viewBox="0 0 14 14" fill="none" xmlns="http://www.w3.org/2000/svg">
<path d="M7.02734 0C3.18254 0 0 3.12785 0 6.97266C0 10.8175 3.18254 14 7.02734 14C10.8721 14 14 10.8175 14 6.97266C14 3.12785 10.8721 0 7.02734 0ZM7.84766 10.7188C7.84766 11.171 7.47934 11.5391 7.02734 11.5391C6.57508 11.5391 6.20703 11.171 6.20703 10.7188V6.5625C6.20703 6.11023 6.57508 5.74219 7.02734 5.74219C7.47934 5.74219 7.84766 6.11023 7.84766 6.5625V10.7188ZM7.02734 4.10156C6.57508 4.10156 6.20703 3.73352 6.20703 3.28125C6.20703 2.82898 6.57508 2.46094 7.02734 2.46094C7.47934 2.46094 7.84766 2.82898 7.84766 3.28125C7.84766 3.73352 7.47934 4.10156 7.02734 4.10156Z" fill="#2AB7CA"/>
</svg>
