<svg width="55" height="55" viewBox="0 0 55 55" fill="none" xmlns="http://www.w3.org/2000/svg">
<rect width="55" height="55" rx="10" fill="#D6FAFF"/>
<g clip-path="url(#clip0)">
<path d="M24.9246 37.4389L20.6826 41.681C18.9239 43.4396 16.0759 43.4396 14.3187 41.6813C12.5611 39.9238 12.5611 37.0755 14.3183 35.3183L22.8039 26.8327C24.5611 25.0755 27.4094 25.0755 29.1666 26.8327C29.7524 27.4185 30.7022 27.4185 31.2879 26.8327C31.8737 26.2469 31.8737 25.2972 31.2879 24.7114C28.3591 21.7826 23.6114 21.7826 20.6826 24.7114L12.1971 33.1969C9.26825 36.1257 9.26825 40.8734 12.1971 43.8022C15.1255 46.7326 19.8736 46.7326 22.804 43.8022L27.046 39.5602C27.6318 38.9744 27.6318 38.0246 27.046 37.4389C26.4603 36.8531 25.5104 36.8532 24.9246 37.4389Z" fill="#2AB7CA"/>
<path d="M43.803 12.1965C40.8742 9.26774 36.1249 9.26774 33.1961 12.1965L28.1066 17.2861C27.5208 17.8719 27.5208 18.8216 28.1066 19.4074C28.6923 19.9932 29.6421 19.9932 30.2279 19.4074L35.3174 14.3179C37.0746 12.5606 39.9244 12.5606 41.6817 14.3179C43.4388 16.0751 43.4388 18.9234 41.6817 20.6806L32.3486 30.0137C30.5913 31.771 27.7431 31.771 25.9859 30.0137C25.4001 29.4279 24.4504 29.4279 23.8646 30.0137C23.2788 30.5995 23.2788 31.5493 23.8646 32.135C26.7934 35.0639 31.5411 35.0639 34.4699 32.135L43.803 22.802C46.7318 19.8732 46.7318 15.1254 43.803 12.1965Z" fill="#2AB7CA"/>
</g>
<defs>
<clipPath id="clip0">
<rect width="36" height="36" fill="white" transform="translate(10 10)"/>
</clipPath>
</defs>
</svg>
