<svg width="164" height="31" viewBox="0 0 164 31" fill="none" xmlns="http://www.w3.org/2000/svg">
<path d="M15.5 25.6343C15.035 25.6343 14.658 25.2572 14.658 24.7923V18.8139C14.658 18.349 15.035 17.9719 15.5 17.9719C15.965 17.9719 16.3419 18.349 16.3419 18.8139V24.7923C16.3419 25.2572 15.965 25.6343 15.5 25.6343Z" fill="#2AB7CA"/>
<path d="M30.158 25.8028H0.841965C0.376965 25.8028 0 25.4257 0 24.9607C0 24.4958 0.376965 24.1188 0.841965 24.1188H30.158C30.623 24.1188 31 24.4958 31 24.9607C31 25.4257 30.623 25.8028 30.158 25.8028Z" fill="#2AB7CA"/>
<path d="M21.7166 19.0675H9.28342C7.78942 19.0675 6.57394 17.8521 6.57394 16.3581V4.95982C6.57394 3.46582 7.78942 2.25034 9.28342 2.25034H18.055C18.7459 2.25034 19.4039 2.51057 19.9081 2.98314L23.5697 6.41597C24.1139 6.92614 24.426 7.64652 24.426 8.39258V9.55442C24.426 10.0194 24.049 10.3964 23.584 10.3964C23.119 10.3964 22.7421 10.0194 22.7421 9.55442V8.39258C22.7421 8.11019 22.624 7.83755 22.418 7.64446L18.7564 4.21164C18.5656 4.03278 18.3165 3.93427 18.055 3.93427H9.28342C8.71797 3.93427 8.25787 4.39431 8.25787 4.95982V16.3582C8.25787 16.9236 8.71791 17.3837 9.28342 17.3837H21.7166C22.282 17.3837 22.7421 16.9237 22.7421 16.3582V13.3018C22.7421 12.8369 23.1191 12.4599 23.5841 12.4599C24.0491 12.4599 24.4261 12.8369 24.4261 13.3018V16.3582C24.4259 17.8522 23.2106 19.0675 21.7166 19.0675Z" fill="#2AB7CA"/>
<path d="M18.9099 9.31186H12.0901C11.6251 9.31186 11.2481 8.93483 11.2481 8.46989C11.2481 8.00495 11.6251 7.62793 12.0901 7.62793H18.9099C19.3749 7.62793 19.7518 8.00495 19.7518 8.46989C19.7518 8.93483 19.3749 9.31186 18.9099 9.31186Z" fill="#2AB7CA"/>
<path d="M18.9099 13.6899H12.0901C11.6251 13.6899 11.2481 13.3129 11.2481 12.848C11.2481 12.383 11.6251 12.006 12.0901 12.006H18.9099C19.3749 12.006 19.7518 12.383 19.7518 12.848C19.7518 13.3129 19.3749 13.6899 18.9099 13.6899Z" fill="#2AB7CA"/>
<path d="M5.95782 27.9071C7.58533 27.9071 8.90469 26.5878 8.90469 24.9603C8.90469 23.3328 7.58533 22.0134 5.95782 22.0134C4.3303 22.0134 3.01094 23.3328 3.01094 24.9603C3.01094 26.5878 4.3303 27.9071 5.95782 27.9071Z" fill="#CDF8FE"/>
<path d="M5.95763 28.7497C3.86846 28.7497 2.16873 27.05 2.16873 24.9608C2.16873 22.8715 3.8684 21.1718 5.95763 21.1718C8.04686 21.1718 9.74654 22.8715 9.74654 24.9608C9.74654 27.05 8.0468 28.7497 5.95763 28.7497ZM5.95763 22.8558C4.79695 22.8558 3.85272 23.8001 3.85272 24.9608C3.85272 26.1214 4.79701 27.0657 5.95763 27.0657C7.11826 27.0657 8.06255 26.1214 8.06255 24.9608C8.06255 23.8001 7.11832 22.8558 5.95763 22.8558Z" fill="#2AB7CA"/>
<path d="M25.0428 27.9071C26.6703 27.9071 27.9897 26.5878 27.9897 24.9603C27.9897 23.3328 26.6703 22.0134 25.0428 22.0134C23.4153 22.0134 22.0959 23.3328 22.0959 24.9603C22.0959 26.5878 23.4153 27.9071 25.0428 27.9071Z" fill="#CDF8FE"/>
<path d="M25.0424 28.7497C22.9532 28.7497 21.2535 27.05 21.2535 24.9608C21.2535 22.8715 22.9531 21.1718 25.0424 21.1718C27.1316 21.1718 28.8313 22.8715 28.8313 24.9608C28.8313 27.05 27.1315 28.7497 25.0424 28.7497ZM25.0424 22.8558C23.8817 22.8558 22.9375 23.8001 22.9375 24.9608C22.9375 26.1214 23.8817 27.0657 25.0424 27.0657C26.203 27.0657 27.1473 26.1214 27.1473 24.9608C27.1473 23.8001 26.203 22.8558 25.0424 22.8558Z" fill="#2AB7CA"/>
<path d="M38.748 17.078V20H36.72V11.258H39.804C40.42 11.258 40.948 11.332 41.388 11.48C41.832 11.624 42.196 11.824 42.48 12.08C42.768 12.336 42.98 12.638 43.116 12.986C43.252 13.334 43.32 13.71 43.32 14.114C43.32 14.55 43.25 14.95 43.11 15.314C42.97 15.678 42.756 15.99 42.468 16.25C42.18 16.51 41.814 16.714 41.37 16.862C40.93 17.006 40.408 17.078 39.804 17.078H38.748ZM38.748 15.548H39.804C40.332 15.548 40.712 15.422 40.944 15.17C41.176 14.918 41.292 14.566 41.292 14.114C41.292 13.914 41.262 13.732 41.202 13.568C41.142 13.404 41.05 13.264 40.926 13.148C40.806 13.028 40.652 12.936 40.464 12.872C40.28 12.808 40.06 12.776 39.804 12.776H38.748V15.548ZM46.2923 13.778V20H44.4323V13.778H46.2923ZM46.5083 12.074C46.5083 12.222 46.4783 12.362 46.4183 12.494C46.3583 12.622 46.2763 12.736 46.1723 12.836C46.0683 12.932 45.9463 13.01 45.8063 13.07C45.6703 13.126 45.5243 13.154 45.3683 13.154C45.2163 13.154 45.0743 13.126 44.9423 13.07C44.8103 13.01 44.6923 12.932 44.5883 12.836C44.4883 12.736 44.4083 12.622 44.3483 12.494C44.2923 12.362 44.2643 12.222 44.2643 12.074C44.2643 11.922 44.2923 11.78 44.3483 11.648C44.4083 11.516 44.4883 11.4 44.5883 11.3C44.6923 11.2 44.8103 11.122 44.9423 11.066C45.0743 11.01 45.2163 10.982 45.3683 10.982C45.5243 10.982 45.6703 11.01 45.8063 11.066C45.9463 11.122 46.0683 11.2 46.1723 11.3C46.2763 11.4 46.3583 11.516 46.4183 11.648C46.4783 11.78 46.5083 11.922 46.5083 12.074ZM47.7942 21.974V13.778H48.9462C49.0622 13.778 49.1582 13.804 49.2342 13.856C49.3142 13.908 49.3702 13.986 49.4022 14.09L49.5402 14.546C49.6602 14.414 49.7882 14.294 49.9242 14.186C50.0642 14.078 50.2122 13.986 50.3682 13.91C50.5282 13.83 50.6982 13.768 50.8782 13.724C51.0622 13.68 51.2622 13.658 51.4782 13.658C51.8022 13.658 52.1022 13.73 52.3782 13.874C52.6542 14.018 52.8922 14.226 53.0922 14.498C53.2922 14.77 53.4482 15.104 53.5602 15.5C53.6762 15.892 53.7342 16.338 53.7342 16.838C53.7342 17.306 53.6682 17.738 53.5362 18.134C53.4082 18.53 53.2262 18.874 52.9902 19.166C52.7582 19.458 52.4782 19.686 52.1502 19.85C51.8262 20.014 51.4662 20.096 51.0702 20.096C50.7462 20.096 50.4742 20.05 50.2542 19.958C50.0342 19.866 49.8342 19.742 49.6542 19.586V21.974H47.7942ZM50.8302 15.08C50.6942 15.08 50.5702 15.094 50.4582 15.122C50.3502 15.146 50.2482 15.182 50.1522 15.23C50.0602 15.278 49.9742 15.34 49.8942 15.416C49.8142 15.488 49.7342 15.572 49.6542 15.668V18.308C49.7942 18.464 49.9462 18.574 50.1102 18.638C50.2742 18.698 50.4462 18.728 50.6262 18.728C50.7982 18.728 50.9562 18.694 51.1002 18.626C51.2442 18.558 51.3682 18.45 51.4722 18.302C51.5802 18.15 51.6642 17.954 51.7242 17.714C51.7842 17.474 51.8142 17.182 51.8142 16.838C51.8142 16.51 51.7902 16.234 51.7422 16.01C51.6942 15.786 51.6262 15.606 51.5382 15.47C51.4542 15.33 51.3522 15.23 51.2322 15.17C51.1122 15.11 50.9782 15.08 50.8302 15.08ZM57.3957 13.682C57.8077 13.682 58.1837 13.746 58.5237 13.874C58.8677 14.002 59.1617 14.188 59.4057 14.432C59.6537 14.676 59.8457 14.976 59.9817 15.332C60.1217 15.684 60.1917 16.084 60.1917 16.532C60.1917 16.672 60.1857 16.786 60.1737 16.874C60.1617 16.962 60.1397 17.032 60.1077 17.084C60.0757 17.136 60.0317 17.172 59.9757 17.192C59.9237 17.212 59.8557 17.222 59.7717 17.222H56.1837C56.2437 17.742 56.4017 18.12 56.6577 18.356C56.9137 18.588 57.2437 18.704 57.6477 18.704C57.8637 18.704 58.0497 18.678 58.2057 18.626C58.3617 18.574 58.4997 18.516 58.6197 18.452C58.7437 18.388 58.8557 18.33 58.9557 18.278C59.0597 18.226 59.1677 18.2 59.2797 18.2C59.4277 18.2 59.5397 18.254 59.6157 18.362L60.1557 19.028C59.9637 19.248 59.7557 19.428 59.5317 19.568C59.3117 19.704 59.0837 19.812 58.8477 19.892C58.6157 19.968 58.3817 20.02 58.1457 20.048C57.9137 20.08 57.6917 20.096 57.4797 20.096C57.0437 20.096 56.6337 20.026 56.2497 19.886C55.8697 19.742 55.5357 19.53 55.2477 19.25C54.9637 18.97 54.7377 18.622 54.5697 18.206C54.4057 17.79 54.3237 17.306 54.3237 16.754C54.3237 16.338 54.3937 15.944 54.5337 15.572C54.6777 15.2 54.8817 14.874 55.1457 14.594C55.4137 14.314 55.7357 14.092 56.1117 13.928C56.4917 13.764 56.9197 13.682 57.3957 13.682ZM57.4317 14.966C57.0757 14.966 56.7977 15.068 56.5977 15.272C56.3977 15.472 56.2657 15.762 56.2017 16.142H58.5237C58.5237 15.994 58.5037 15.85 58.4637 15.71C58.4277 15.57 58.3657 15.446 58.2777 15.338C58.1937 15.226 58.0817 15.136 57.9417 15.068C57.8017 15 57.6317 14.966 57.4317 14.966ZM69.2074 11.258V12.818H65.6194V15.032H68.6074V16.598H65.6194V20H63.5794V11.258H69.2074ZM72.1791 13.778V20H70.3191V13.778H72.1791ZM72.3951 12.074C72.3951 12.222 72.3651 12.362 72.3051 12.494C72.2451 12.622 72.1631 12.736 72.0591 12.836C71.9551 12.932 71.8331 13.01 71.6931 13.07C71.5571 13.126 71.4111 13.154 71.2551 13.154C71.1031 13.154 70.9611 13.126 70.8291 13.07C70.6971 13.01 70.5791 12.932 70.4751 12.836C70.3751 12.736 70.2951 12.622 70.2351 12.494C70.1791 12.362 70.1511 12.222 70.1511 12.074C70.1511 11.922 70.1791 11.78 70.2351 11.648C70.2951 11.516 70.3751 11.4 70.4751 11.3C70.5791 11.2 70.6971 11.122 70.8291 11.066C70.9611 11.01 71.1031 10.982 71.2551 10.982C71.4111 10.982 71.5571 11.01 71.6931 11.066C71.8331 11.122 71.9551 11.2 72.0591 11.3C72.1631 11.4 72.2451 11.516 72.3051 11.648C72.3651 11.78 72.3951 11.922 72.3951 12.074ZM75.6009 11.018V20H73.7409V11.018H75.6009ZM79.7668 13.682C80.1788 13.682 80.5548 13.746 80.8948 13.874C81.2388 14.002 81.5328 14.188 81.7768 14.432C82.0248 14.676 82.2168 14.976 82.3528 15.332C82.4928 15.684 82.5628 16.084 82.5628 16.532C82.5628 16.672 82.5568 16.786 82.5448 16.874C82.5328 16.962 82.5108 17.032 82.4788 17.084C82.4468 17.136 82.4028 17.172 82.3468 17.192C82.2948 17.212 82.2268 17.222 82.1428 17.222H78.5548C78.6148 17.742 78.7728 18.12 79.0288 18.356C79.2848 18.588 79.6148 18.704 80.0188 18.704C80.2348 18.704 80.4208 18.678 80.5768 18.626C80.7328 18.574 80.8708 18.516 80.9908 18.452C81.1148 18.388 81.2268 18.33 81.3268 18.278C81.4308 18.226 81.5388 18.2 81.6508 18.2C81.7988 18.2 81.9108 18.254 81.9868 18.362L82.5268 19.028C82.3348 19.248 82.1268 19.428 81.9028 19.568C81.6828 19.704 81.4548 19.812 81.2188 19.892C80.9868 19.968 80.7528 20.02 80.5168 20.048C80.2848 20.08 80.0628 20.096 79.8508 20.096C79.4148 20.096 79.0048 20.026 78.6208 19.886C78.2408 19.742 77.9068 19.53 77.6188 19.25C77.3348 18.97 77.1088 18.622 76.9408 18.206C76.7768 17.79 76.6948 17.306 76.6948 16.754C76.6948 16.338 76.7648 15.944 76.9048 15.572C77.0488 15.2 77.2528 14.874 77.5168 14.594C77.7848 14.314 78.1068 14.092 78.4828 13.928C78.8628 13.764 79.2908 13.682 79.7668 13.682ZM79.8028 14.966C79.4468 14.966 79.1688 15.068 78.9688 15.272C78.7688 15.472 78.6368 15.762 78.5728 16.142H80.8948C80.8948 15.994 80.8748 15.85 80.8348 15.71C80.7988 15.57 80.7368 15.446 80.6488 15.338C80.5648 15.226 80.4528 15.136 80.3128 15.068C80.1728 15 80.0028 14.966 79.8028 14.966ZM92.2985 11.258V12.866H89.8385V20H87.8105V12.866H85.3505V11.258H92.2985ZM92.1731 20V13.778H93.2771C93.3691 13.778 93.4451 13.786 93.5051 13.802C93.5691 13.818 93.6211 13.844 93.6611 13.88C93.7051 13.912 93.7371 13.956 93.7571 14.012C93.7811 14.068 93.8011 14.136 93.8171 14.216L93.9191 14.798C94.1471 14.446 94.4031 14.168 94.6871 13.964C94.9711 13.76 95.2811 13.658 95.6171 13.658C95.9011 13.658 96.1291 13.726 96.3011 13.862L96.0611 15.23C96.0451 15.314 96.0131 15.374 95.9651 15.41C95.9171 15.442 95.8531 15.458 95.7731 15.458C95.7051 15.458 95.6251 15.45 95.5331 15.434C95.4411 15.414 95.3251 15.404 95.1851 15.404C94.6971 15.404 94.3131 15.664 94.0331 16.184V20H92.1731ZM101.309 20C101.133 20 100.999 19.976 100.907 19.928C100.819 19.88 100.745 19.78 100.685 19.628L100.553 19.286C100.397 19.418 100.247 19.534 100.103 19.634C99.959 19.734 99.809 19.82 99.653 19.892C99.501 19.96 99.337 20.01 99.161 20.042C98.989 20.078 98.797 20.096 98.585 20.096C98.301 20.096 98.043 20.06 97.811 19.988C97.579 19.912 97.381 19.802 97.217 19.658C97.057 19.514 96.933 19.336 96.845 19.124C96.757 18.908 96.713 18.66 96.713 18.38C96.713 18.16 96.769 17.934 96.881 17.702C96.993 17.47 97.187 17.26 97.463 17.072C97.739 16.88 98.111 16.72 98.579 16.592C99.047 16.464 99.637 16.392 100.349 16.376V16.112C100.349 15.748 100.273 15.486 100.121 15.326C99.973 15.162 99.761 15.08 99.485 15.08C99.265 15.08 99.085 15.104 98.945 15.152C98.805 15.2 98.679 15.254 98.567 15.314C98.459 15.374 98.353 15.428 98.249 15.476C98.145 15.524 98.021 15.548 97.877 15.548C97.749 15.548 97.639 15.518 97.547 15.458C97.459 15.394 97.389 15.316 97.337 15.224L97.001 14.642C97.377 14.31 97.793 14.064 98.249 13.904C98.709 13.74 99.201 13.658 99.725 13.658C100.101 13.658 100.439 13.72 100.739 13.844C101.043 13.964 101.299 14.134 101.507 14.354C101.719 14.57 101.881 14.828 101.993 15.128C102.105 15.428 102.161 15.756 102.161 16.112V20H101.309ZM99.173 18.866C99.413 18.866 99.623 18.824 99.803 18.74C99.983 18.656 100.165 18.52 100.349 18.332V17.468C99.977 17.484 99.671 17.516 99.431 17.564C99.191 17.612 99.001 17.672 98.861 17.744C98.721 17.816 98.623 17.898 98.567 17.99C98.515 18.082 98.489 18.182 98.489 18.29C98.489 18.502 98.547 18.652 98.663 18.74C98.779 18.824 98.949 18.866 99.173 18.866ZM103.482 20V13.778H104.634C104.75 13.778 104.846 13.804 104.922 13.856C105.002 13.908 105.058 13.986 105.09 14.09L105.198 14.45C105.318 14.338 105.442 14.234 105.57 14.138C105.698 14.042 105.834 13.962 105.978 13.898C106.126 13.83 106.284 13.778 106.452 13.742C106.624 13.702 106.81 13.682 107.01 13.682C107.35 13.682 107.65 13.742 107.91 13.862C108.174 13.978 108.396 14.142 108.576 14.354C108.756 14.562 108.892 14.812 108.984 15.104C109.076 15.392 109.122 15.706 109.122 16.046V20H107.262V16.046C107.262 15.742 107.192 15.506 107.052 15.338C106.912 15.166 106.706 15.08 106.434 15.08C106.23 15.08 106.038 15.124 105.858 15.212C105.678 15.3 105.506 15.418 105.342 15.566V20H103.482ZM114.247 15.14C114.199 15.216 114.147 15.27 114.091 15.302C114.039 15.334 113.971 15.35 113.887 15.35C113.799 15.35 113.711 15.332 113.623 15.296C113.535 15.256 113.439 15.214 113.335 15.17C113.235 15.126 113.121 15.086 112.993 15.05C112.865 15.01 112.719 14.99 112.555 14.99C112.319 14.99 112.137 15.036 112.009 15.128C111.885 15.216 111.823 15.34 111.823 15.5C111.823 15.616 111.863 15.712 111.943 15.788C112.027 15.864 112.137 15.932 112.273 15.992C112.409 16.048 112.563 16.102 112.735 16.154C112.907 16.206 113.083 16.264 113.263 16.328C113.443 16.392 113.619 16.468 113.791 16.556C113.963 16.64 114.117 16.746 114.253 16.874C114.389 16.998 114.497 17.15 114.577 17.33C114.661 17.51 114.703 17.726 114.703 17.978C114.703 18.286 114.647 18.57 114.535 18.83C114.423 19.09 114.255 19.314 114.031 19.502C113.811 19.69 113.537 19.836 113.209 19.94C112.885 20.044 112.511 20.096 112.087 20.096C111.875 20.096 111.663 20.076 111.451 20.036C111.239 19.996 111.033 19.942 110.833 19.874C110.637 19.806 110.455 19.726 110.287 19.634C110.119 19.538 109.975 19.436 109.855 19.328L110.287 18.644C110.339 18.564 110.401 18.502 110.473 18.458C110.545 18.41 110.639 18.386 110.755 18.386C110.863 18.386 110.959 18.41 111.043 18.458C111.131 18.506 111.225 18.558 111.325 18.614C111.425 18.67 111.541 18.722 111.673 18.77C111.809 18.818 111.979 18.842 112.183 18.842C112.327 18.842 112.449 18.828 112.549 18.8C112.649 18.768 112.729 18.726 112.789 18.674C112.849 18.622 112.893 18.564 112.921 18.5C112.949 18.436 112.963 18.37 112.963 18.302C112.963 18.178 112.921 18.076 112.837 17.996C112.753 17.916 112.643 17.848 112.507 17.792C112.371 17.732 112.215 17.678 112.039 17.63C111.867 17.578 111.691 17.52 111.511 17.456C111.331 17.392 111.153 17.316 110.977 17.228C110.805 17.136 110.651 17.022 110.515 16.886C110.379 16.746 110.269 16.576 110.185 16.376C110.101 16.176 110.059 15.934 110.059 15.65C110.059 15.386 110.109 15.136 110.209 14.9C110.313 14.66 110.467 14.45 110.671 14.27C110.875 14.09 111.131 13.948 111.439 13.844C111.747 13.736 112.107 13.682 112.519 13.682C112.743 13.682 112.959 13.702 113.167 13.742C113.379 13.782 113.577 13.838 113.761 13.91C113.945 13.982 114.113 14.068 114.265 14.168C114.417 14.264 114.551 14.37 114.667 14.486L114.247 15.14ZM116.004 20V15.056L115.596 14.972C115.456 14.94 115.342 14.89 115.254 14.822C115.17 14.754 115.128 14.654 115.128 14.522V13.79H116.004V13.436C116.004 13.08 116.06 12.758 116.172 12.47C116.288 12.182 116.452 11.936 116.664 11.732C116.88 11.528 117.142 11.37 117.45 11.258C117.758 11.146 118.108 11.09 118.5 11.09C118.652 11.09 118.792 11.1 118.92 11.12C119.052 11.136 119.188 11.164 119.328 11.204L119.292 12.11C119.288 12.174 119.27 12.228 119.238 12.272C119.21 12.312 119.174 12.346 119.13 12.374C119.086 12.398 119.036 12.416 118.98 12.428C118.928 12.44 118.876 12.446 118.824 12.446C118.66 12.446 118.514 12.462 118.386 12.494C118.258 12.526 118.15 12.584 118.062 12.668C117.978 12.748 117.914 12.856 117.87 12.992C117.826 13.124 117.804 13.292 117.804 13.496V13.79H119.268V15.062H117.864V20H116.004ZM122.739 13.682C123.151 13.682 123.527 13.746 123.867 13.874C124.211 14.002 124.505 14.188 124.749 14.432C124.997 14.676 125.189 14.976 125.325 15.332C125.465 15.684 125.535 16.084 125.535 16.532C125.535 16.672 125.529 16.786 125.517 16.874C125.505 16.962 125.483 17.032 125.451 17.084C125.419 17.136 125.375 17.172 125.319 17.192C125.267 17.212 125.199 17.222 125.115 17.222H121.527C121.587 17.742 121.745 18.12 122.001 18.356C122.257 18.588 122.587 18.704 122.991 18.704C123.207 18.704 123.393 18.678 123.549 18.626C123.705 18.574 123.843 18.516 123.963 18.452C124.087 18.388 124.199 18.33 124.299 18.278C124.403 18.226 124.511 18.2 124.623 18.2C124.771 18.2 124.883 18.254 124.959 18.362L125.499 19.028C125.307 19.248 125.099 19.428 124.875 19.568C124.655 19.704 124.427 19.812 124.191 19.892C123.959 19.968 123.725 20.02 123.489 20.048C123.257 20.08 123.035 20.096 122.823 20.096C122.387 20.096 121.977 20.026 121.593 19.886C121.213 19.742 120.879 19.53 120.591 19.25C120.307 18.97 120.081 18.622 119.913 18.206C119.749 17.79 119.667 17.306 119.667 16.754C119.667 16.338 119.737 15.944 119.877 15.572C120.021 15.2 120.225 14.874 120.489 14.594C120.757 14.314 121.079 14.092 121.455 13.928C121.835 13.764 122.263 13.682 122.739 13.682ZM122.775 14.966C122.419 14.966 122.141 15.068 121.941 15.272C121.741 15.472 121.609 15.762 121.545 16.142H123.867C123.867 15.994 123.847 15.85 123.807 15.71C123.771 15.57 123.709 15.446 123.621 15.338C123.537 15.226 123.425 15.136 123.285 15.068C123.145 15 122.975 14.966 122.775 14.966ZM126.603 20V13.778H127.707C127.799 13.778 127.875 13.786 127.935 13.802C127.999 13.818 128.051 13.844 128.091 13.88C128.135 13.912 128.167 13.956 128.187 14.012C128.211 14.068 128.231 14.136 128.247 14.216L128.349 14.798C128.577 14.446 128.833 14.168 129.117 13.964C129.401 13.76 129.711 13.658 130.047 13.658C130.331 13.658 130.559 13.726 130.731 13.862L130.491 15.23C130.475 15.314 130.443 15.374 130.395 15.41C130.347 15.442 130.283 15.458 130.203 15.458C130.135 15.458 130.055 15.45 129.963 15.434C129.871 15.414 129.755 15.404 129.615 15.404C129.127 15.404 128.743 15.664 128.463 16.184V20H126.603Z" fill="#2AB7CA"/>
</svg>
