<svg width="55" height="55" viewBox="0 0 55 55" fill="none" xmlns="http://www.w3.org/2000/svg">
<rect width="55" height="55" rx="10" fill="#D6FAFF"/>
<g clip-path="url(#clip0)">
<path d="M44.2795 11.722C43.2598 10.7038 41.8776 10.1319 40.4365 10.1319C38.9955 10.1319 37.6133 10.7038 36.5935 11.722L12.1975 36.118C11.4989 36.8127 10.945 37.639 10.5678 38.5492C10.1906 39.4594 9.9976 40.4353 10 41.4205V44.5C10 44.8979 10.1581 45.2794 10.4394 45.5607C10.7207 45.842 11.1022 46 11.5 46H14.5795C15.5647 46.0028 16.5406 45.8102 17.4508 45.4332C18.3609 45.0563 19.1873 44.5025 19.882 43.804L44.2795 19.4065C45.2973 18.3868 45.8689 17.005 45.8689 15.5643C45.8689 14.1236 45.2973 12.7417 44.2795 11.722ZM17.761 41.683C16.915 42.5234 15.772 42.9966 14.5795 43H13V41.4205C12.9985 40.8294 13.1143 40.2438 13.3406 39.6977C13.5669 39.1516 13.8993 38.6558 14.3185 38.239L32.833 19.7245L36.283 23.1745L17.761 41.683ZM42.157 17.2855L38.398 21.046L34.948 17.6035L38.7085 13.843C38.9351 13.617 39.2039 13.4378 39.4997 13.3156C39.7955 13.1935 40.1124 13.1308 40.4324 13.1312C40.7524 13.1315 41.0692 13.1949 41.3648 13.3177C41.6603 13.4405 41.9287 13.6202 42.1548 13.8468C42.3808 14.0733 42.56 14.3421 42.6822 14.6379C42.8043 14.9337 42.867 15.2507 42.8666 15.5707C42.8663 15.8907 42.8029 16.2075 42.6801 16.503C42.5573 16.7985 42.3776 17.067 42.151 17.293L42.157 17.2855Z" fill="#2AB7CA"/>
</g>
<defs>
<clipPath id="clip0">
<rect width="36" height="36" fill="white" transform="translate(10 10)"/>
</clipPath>
</defs>
</svg>
