<svg width="55" height="55" viewBox="0 0 55 55" fill="none" xmlns="http://www.w3.org/2000/svg">
<rect width="55" height="55" rx="10" fill="#D6FAFF"/>
<g clip-path="url(#clip0)">
<path d="M15.5 21.75V16.75C15.5 16.4185 15.6317 16.1005 15.8661 15.8661C16.1005 15.6317 16.4185 15.5 16.75 15.5L39.25 15.5C39.5815 15.5 39.8995 15.6317 40.1339 15.8661C40.3683 16.1005 40.5 16.4185 40.5 16.75V21.75C40.5 22.0815 40.6317 22.3995 40.8661 22.6339C41.1005 22.8683 41.4185 23 41.75 23C42.0815 23 42.3995 22.8683 42.6339 22.6339C42.8683 22.3995 43 22.0815 43 21.75V16.75C43 15.7554 42.6049 14.8016 41.9017 14.0983C41.1984 13.3951 40.2446 13 39.25 13L16.75 13C15.7554 13 14.8016 13.3951 14.0983 14.0983C13.3951 14.8016 13 15.7554 13 16.75V21.75C13 22.0815 13.1317 22.3995 13.3661 22.6339C13.6005 22.8683 13.9185 23 14.25 23C14.5815 23 14.8995 22.8683 15.1339 22.6339C15.3683 22.3995 15.5 22.0815 15.5 21.75Z" fill="#2AB7CA"/>
<path d="M19.6163 36.1725L25.3488 41.9063C26.0531 42.6072 27.0064 43.0006 28 43.0006C28.9937 43.0006 29.9469 42.6072 30.6513 41.9063L36.3838 36.1725C36.5032 36.0572 36.5984 35.9193 36.6639 35.7668C36.7294 35.6143 36.7639 35.4502 36.7653 35.2843C36.7668 35.1183 36.7351 34.9537 36.6723 34.8001C36.6094 34.6465 36.5166 34.5069 36.3993 34.3895C36.2819 34.2722 36.1423 34.1793 35.9887 34.1165C35.8351 34.0536 35.6705 34.022 35.5045 34.0235C35.3385 34.0249 35.1745 34.0594 35.022 34.1249C34.8695 34.1904 34.7316 34.2856 34.6163 34.405L29.25 39.77L29.25 20.5C29.25 20.1685 29.1183 19.8506 28.8839 19.6161C28.6495 19.3817 28.3315 19.25 28 19.25C27.6685 19.25 27.3506 19.3817 27.1161 19.6161C26.8817 19.8506 26.75 20.1685 26.75 20.5L26.75 39.7713L21.3838 34.405C21.2685 34.2856 21.1305 34.1904 20.978 34.1249C20.8255 34.0594 20.6615 34.0249 20.4955 34.0235C20.3295 34.022 20.165 34.0536 20.0113 34.1165C19.8577 34.1793 19.7181 34.2722 19.6008 34.3895C19.4834 34.5069 19.3906 34.6465 19.3277 34.8001C19.2649 34.9537 19.2333 35.1183 19.2347 35.2843C19.2362 35.4502 19.2706 35.6143 19.3361 35.7668C19.4017 35.9193 19.4969 36.0572 19.6163 36.1725Z" fill="#2AB7CA"/>
</g>
<defs>
<clipPath id="clip0">
<rect width="30" height="30" fill="white" transform="translate(43 43) rotate(-180)"/>
</clipPath>
</defs>
</svg>
