<svg width="55" height="55" viewBox="0 0 55 55" fill="none" xmlns="http://www.w3.org/2000/svg">
<rect width="55" height="55" rx="10" fill="#D6FAFF"/>
<g clip-path="url(#clip0)">
<path d="M40.5 34.25V39.25C40.5 39.5815 40.3683 39.8995 40.1339 40.1339C39.8995 40.3683 39.5815 40.5 39.25 40.5H16.75C16.4185 40.5 16.1005 40.3683 15.8661 40.1339C15.6317 39.8995 15.5 39.5815 15.5 39.25V34.25C15.5 33.9185 15.3683 33.6005 15.1339 33.3661C14.8995 33.1317 14.5815 33 14.25 33C13.9185 33 13.6005 33.1317 13.3661 33.3661C13.1317 33.6005 13 33.9185 13 34.25V39.25C13 40.2446 13.3951 41.1984 14.0983 41.9017C14.8016 42.6049 15.7554 43 16.75 43H39.25C40.2446 43 41.1984 42.6049 41.9017 41.9017C42.6049 41.1984 43 40.2446 43 39.25V34.25C43 33.9185 42.8683 33.6005 42.6339 33.3661C42.3995 33.1317 42.0815 33 41.75 33C41.4185 33 41.1005 33.1317 40.8661 33.3661C40.6317 33.6005 40.5 33.9185 40.5 34.25Z" fill="#2AB7CA"/>
<path d="M36.3837 19.8275L30.6512 14.0938C29.9469 13.3929 28.9936 12.9994 28 12.9994C27.0063 12.9994 26.0531 13.3929 25.3487 14.0938L19.6162 19.8275C19.4968 19.9428 19.4016 20.0808 19.3361 20.2333C19.2706 20.3858 19.2361 20.5498 19.2347 20.7158C19.2332 20.8817 19.2649 21.0463 19.3277 21.2C19.3906 21.3536 19.4834 21.4931 19.6007 21.6105C19.7181 21.7279 19.8577 21.8207 20.0113 21.8835C20.1649 21.9464 20.3295 21.978 20.4955 21.9766C20.6615 21.9751 20.8255 21.9406 20.978 21.8751C21.1305 21.8096 21.2684 21.7144 21.3837 21.595L26.75 16.23V35.5C26.75 35.8315 26.8817 36.1495 27.1161 36.3839C27.3505 36.6183 27.6685 36.75 28 36.75C28.3315 36.75 28.6494 36.6183 28.8839 36.3839C29.1183 36.1495 29.25 35.8315 29.25 35.5V16.2288L34.6162 21.595C34.7315 21.7144 34.8695 21.8096 35.022 21.8751C35.1745 21.9406 35.3385 21.9751 35.5045 21.9766C35.6705 21.978 35.835 21.9464 35.9887 21.8835C36.1423 21.8207 36.2819 21.7279 36.3992 21.6105C36.5166 21.4931 36.6094 21.3536 36.6723 21.2C36.7351 21.0463 36.7667 20.8817 36.7653 20.7158C36.7638 20.5498 36.7294 20.3858 36.6639 20.2333C36.5983 20.0808 36.5031 19.9428 36.3837 19.8275Z" fill="#2AB7CA"/>
</g>
<defs>
<clipPath id="clip0">
<rect width="30" height="30" fill="white" transform="translate(13 13)"/>
</clipPath>
</defs>
</svg>
