<svg width="24" height="24" viewBox="0 0 24 24" fill="none" xmlns="http://www.w3.org/2000/svg">
<g clip-path="url(#clip0)">
<path d="M22 17V21C22 21.2652 21.8946 21.5196 21.7071 21.7071C21.5196 21.8946 21.2652 22 21 22H3C2.73478 22 2.48043 21.8946 2.29289 21.7071C2.10536 21.5196 2 21.2652 2 21V17C2 16.7348 1.89464 16.4804 1.70711 16.2929C1.51957 16.1054 1.26522 16 1 16C0.734784 16 0.48043 16.1054 0.292893 16.2929C0.105357 16.4804 0 16.7348 0 17L0 21C0 21.7956 0.31607 22.5587 0.87868 23.1213C1.44129 23.6839 2.20435 24 3 24H21C21.7956 24 22.5587 23.6839 23.1213 23.1213C23.6839 22.5587 24 21.7956 24 21V17C24 16.7348 23.8946 16.4804 23.7071 16.2929C23.5196 16.1054 23.2652 16 23 16C22.7348 16 22.4804 16.1054 22.2929 16.2929C22.1054 16.4804 22 16.7348 22 17Z" fill="#2AB7CA"/>
<path d="M18.707 5.462L14.121 0.875C13.5575 0.314295 12.7949 -0.000473022 12 -0.000473022C11.2051 -0.000473022 10.4425 0.314295 9.87902 0.875L5.29302 5.462C5.19751 5.55425 5.12133 5.66459 5.06892 5.7866C5.01651 5.9086 4.98892 6.03982 4.98777 6.1726C4.98662 6.30538 5.01192 6.43706 5.0622 6.55995C5.11248 6.68285 5.18673 6.7945 5.28062 6.88839C5.37452 6.98229 5.48617 7.05654 5.60907 7.10682C5.73196 7.1571 5.86364 7.1824 5.99642 7.18125C6.1292 7.1801 6.26042 7.15251 6.38242 7.1001C6.50443 7.04769 6.61477 6.97151 6.70702 6.876L11 2.584V18C11 18.2652 11.1054 18.5196 11.2929 18.7071C11.4804 18.8946 11.7348 19 12 19C12.2652 19 12.5196 18.8946 12.7071 18.7071C12.8947 18.5196 13 18.2652 13 18V2.583L17.293 6.876C17.3853 6.97151 17.4956 7.04769 17.6176 7.1001C17.7396 7.15251 17.8708 7.1801 18.0036 7.18125C18.1364 7.1824 18.2681 7.1571 18.391 7.10682C18.5139 7.05654 18.6255 6.98229 18.7194 6.88839C18.8133 6.7945 18.8876 6.68285 18.9378 6.55995C18.9881 6.43706 19.0134 6.30538 19.0123 6.1726C19.0111 6.03982 18.9835 5.9086 18.9311 5.7866C18.8787 5.66459 18.8025 5.55425 18.707 5.462Z" fill="#2AB7CA"/>
</g>
<defs>
<clipPath id="clip0">
<rect width="24" height="24" fill="white"/>
</clipPath>
</defs>
</svg>
