<svg width="55" height="55" viewBox="0 0 55 55" fill="none" xmlns="http://www.w3.org/2000/svg">
<rect width="55" height="55" rx="10" fill="#D6FAFF"/>
<path d="M31.375 37.8333H18.4583C16.7461 37.8313 15.1046 37.1502 13.8939 35.9395C12.6831 34.7287 12.0021 33.0872 12 31.375V18.4583C12.0021 16.7461 12.6831 15.1046 13.8939 13.8939C15.1046 12.6831 16.7461 12.0021 18.4583 12H31.375C33.0872 12.0021 34.7287 12.6831 35.9395 13.8939C37.1502 15.1046 37.8313 16.7461 37.8333 18.4583V31.375C37.8313 33.0872 37.1502 34.7287 35.9395 35.9395C34.7287 37.1502 33.0872 37.8313 31.375 37.8333ZM18.4583 14.5833C17.4306 14.5833 16.445 14.9916 15.7183 15.7183C14.9916 16.445 14.5833 17.4306 14.5833 18.4583V31.375C14.5833 32.4027 14.9916 33.3883 15.7183 34.115C16.445 34.8417 17.4306 35.25 18.4583 35.25H31.375C32.4027 35.25 33.3883 34.8417 34.115 34.115C34.8417 33.3883 35.25 32.4027 35.25 31.375V18.4583C35.25 17.4306 34.8417 16.445 34.115 15.7183C33.3883 14.9916 32.4027 14.5833 31.375 14.5833H18.4583ZM43 36.5417V19.75C43 19.4074 42.8639 19.0789 42.6217 18.8367C42.3794 18.5944 42.0509 18.4583 41.7083 18.4583C41.3658 18.4583 41.0372 18.5944 40.795 18.8367C40.5528 19.0789 40.4167 19.4074 40.4167 19.75V36.5417C40.4167 37.5694 40.0084 38.555 39.2817 39.2817C38.555 40.0084 37.5694 40.4167 36.5417 40.4167H19.75C19.4074 40.4167 19.0789 40.5528 18.8367 40.795C18.5944 41.0372 18.4583 41.3658 18.4583 41.7083C18.4583 42.0509 18.5944 42.3794 18.8367 42.6217C19.0789 42.8639 19.4074 43 19.75 43H36.5417C38.2539 42.9979 39.8954 42.3169 41.1061 41.1061C42.3169 39.8954 42.9979 38.2539 43 36.5417Z" fill="#2AB7CA"/>
</svg>
