<svg width="286" height="286" viewBox="0 0 286 286" fill="none" xmlns="http://www.w3.org/2000/svg">
<path d="M143 274.32C213.428 274.32 270.522 241.355 270.522 200.692C270.522 160.028 213.428 127.064 143 127.064C72.5717 127.064 15.4783 160.028 15.4783 200.692C15.4783 241.355 72.5717 274.32 143 274.32Z" fill="#F5F5F5"/>
<path d="M50.7822 219.025C61.0587 219.025 69.3894 214.215 69.3894 208.282C69.3894 202.35 61.0587 197.54 50.7822 197.54C40.5058 197.54 32.175 202.35 32.175 208.282C32.175 214.215 40.5058 219.025 50.7822 219.025Z" fill="#E0E0E0"/>
<path d="M127.602 184.762L76.3449 214.357L39.0791 192.678L90.336 163.089L127.602 184.762Z" fill="#E0E0E0"/>
<path d="M211.131 245.537L85.1252 172.784C84.8624 172.634 84.644 172.417 84.4921 172.155C84.3403 171.894 84.2603 171.597 84.2603 171.294C84.2603 170.991 84.3403 170.694 84.4921 170.433C84.644 170.171 84.8624 169.954 85.1252 169.804L105.465 158.061C106.294 157.58 107.236 157.327 108.194 157.327C109.152 157.327 110.093 157.58 110.922 158.061L236.928 230.808C237.192 230.957 237.412 231.174 237.565 231.437C237.718 231.699 237.798 231.997 237.798 232.301C237.798 232.604 237.718 232.902 237.565 233.165C237.412 233.427 237.192 233.644 236.928 233.794L216.594 245.537C215.763 246.014 214.821 246.266 213.862 246.266C212.904 246.266 211.962 246.014 211.131 245.537Z" fill="#E0E0E0"/>
<path d="M230.791 207.945L237.872 212.058C237.872 212.058 234.297 200.652 236.282 189.178C237.031 184.842 238.604 182.691 239.142 181.536C239.679 180.38 243.969 173.219 240.211 169.924C236.453 166.629 227.627 173.184 228.028 190.859C228.223 196.648 229.151 202.389 230.791 207.945Z" fill="#2AB7CA"/>
<path opacity="0.3" d="M230.791 207.945L237.872 212.058C237.872 212.058 234.297 200.652 236.282 189.178C237.031 184.842 238.604 182.691 239.142 181.536C239.679 180.38 243.969 173.219 240.211 169.924C236.453 166.629 227.627 173.184 228.028 190.859C228.223 196.648 229.151 202.389 230.791 207.945Z" fill="#0F1020"/>
<path d="M234.08 210.113C234.028 210.113 233.977 210.097 233.934 210.067C233.891 210.038 233.858 209.996 233.839 209.947C233.811 209.873 231.14 202.448 231.277 190.533C231.414 178.618 237.706 172.178 237.769 172.115C237.818 172.066 237.883 172.039 237.952 172.039C238.021 172.039 238.087 172.066 238.135 172.115C238.184 172.163 238.211 172.229 238.211 172.298C238.211 172.366 238.184 172.432 238.135 172.481C238.072 172.544 231.929 178.773 231.792 190.539C231.654 202.305 234.297 209.695 234.32 209.77C234.332 209.801 234.337 209.834 234.336 209.867C234.335 209.901 234.328 209.933 234.314 209.964C234.3 209.994 234.28 210.021 234.256 210.044C234.231 210.067 234.203 210.084 234.171 210.096C234.142 210.107 234.111 210.113 234.08 210.113Z" fill="#F7F8FC"/>
<path d="M232.804 209.009L244.507 215.873C244.507 215.873 249.861 215.083 249.455 210.044C249.049 205.005 246.875 203.809 249.587 201.596C252.298 199.382 253.019 199.233 252.864 197.06C252.71 194.886 251.274 193.942 250.576 193.056C249.878 192.169 247.974 190.39 249.318 187.77C250.662 185.151 252.498 182.622 249.781 181.421C248.162 180.706 245.44 181.604 243.632 183.52C241.825 185.437 240.343 186.815 238.633 187.261C236.923 187.708 233.353 187.742 233.485 190.693C233.616 193.645 234.371 194.657 233.656 195.967C232.284 198.484 226.512 199.788 232.804 209.009Z" fill="#2AB7CA"/>
<path d="M237.546 212.069C237.482 212.068 237.42 212.044 237.373 212C237.326 211.957 237.296 211.898 237.289 211.834C237.289 211.657 236.007 194.245 248.105 182.811C248.129 182.787 248.157 182.768 248.188 182.755C248.219 182.742 248.252 182.735 248.285 182.735C248.319 182.735 248.352 182.742 248.383 182.755C248.414 182.768 248.442 182.787 248.466 182.811C248.513 182.86 248.54 182.926 248.54 182.994C248.54 183.063 248.513 183.128 248.466 183.177C236.551 194.44 237.798 211.611 237.815 211.777C237.82 211.845 237.798 211.912 237.754 211.965C237.71 212.017 237.648 212.05 237.58 212.058L237.546 212.069Z" fill="#F7F8FC"/>
<path d="M239.668 197.117C239.604 197.117 239.541 197.093 239.494 197.05C239.446 197.006 239.416 196.947 239.411 196.882C239.312 195.536 238.941 194.224 238.322 193.025C237.703 191.826 236.847 190.764 235.807 189.904C235.78 189.884 235.756 189.859 235.739 189.83C235.721 189.801 235.709 189.769 235.704 189.736C235.698 189.702 235.7 189.668 235.708 189.635C235.716 189.602 235.73 189.571 235.75 189.544C235.769 189.516 235.794 189.493 235.822 189.475C235.851 189.458 235.882 189.446 235.915 189.441C235.948 189.435 235.982 189.437 236.014 189.444C236.047 189.452 236.078 189.467 236.105 189.486C237.215 190.386 238.126 191.506 238.78 192.776C239.434 194.047 239.816 195.439 239.903 196.865C239.906 196.933 239.883 197 239.838 197.051C239.793 197.102 239.73 197.134 239.662 197.14L239.668 197.117Z" fill="#F7F8FC"/>
<path d="M238.781 200.097C238.75 200.098 238.718 200.092 238.689 200.08C238.659 200.068 238.633 200.051 238.61 200.028C238.586 200.005 238.567 199.977 238.554 199.946C238.541 199.915 238.534 199.882 238.534 199.848C238.534 199.815 238.541 199.781 238.554 199.75C238.567 199.72 238.586 199.692 238.61 199.668C238.736 199.531 241.773 196.236 248.786 197.22C248.853 197.228 248.914 197.263 248.956 197.317C248.998 197.37 249.017 197.438 249.009 197.506C248.999 197.574 248.963 197.635 248.908 197.677C248.854 197.718 248.785 197.737 248.717 197.729C241.99 196.802 239.022 199.977 238.993 200.017C238.967 200.046 238.934 200.068 238.897 200.082C238.86 200.096 238.821 200.101 238.781 200.097Z" fill="#F7F8FC"/>
<path d="M219.682 156.465L203.352 146.901L213.076 160.274L219.682 156.465Z" fill="#2AB7CA"/>
<path opacity="0.6" d="M219.682 156.465L203.352 146.901L213.076 160.274L219.682 156.465Z" fill="#0F1020"/>
<path d="M209.975 191.86L114.4 136.674C113.99 136.438 113.649 136.097 113.412 135.688C113.175 135.278 113.05 134.813 113.05 134.34V69.0804C113.05 68.6072 113.175 68.1424 113.412 67.7326C113.648 67.3228 113.988 66.9824 114.398 66.7454C114.808 66.5085 115.272 66.3833 115.745 66.3825C116.219 66.3818 116.684 66.5054 117.094 66.741L212.681 121.928C213.091 122.165 213.432 122.506 213.669 122.917C213.906 123.327 214.031 123.793 214.031 124.267V189.526C214.031 190.001 213.906 190.467 213.668 190.877C213.43 191.288 213.089 191.629 212.678 191.865C212.267 192.102 211.8 192.226 211.326 192.225C210.851 192.224 210.386 192.098 209.975 191.86Z" fill="#E0E0E0"/>
<path d="M213.076 160.274L219.682 156.465V233.685C219.683 234.381 219.5 235.065 219.151 235.668C218.803 236.27 218.301 236.77 217.697 237.117L211.171 240.898L213.076 160.274Z" fill="#2AB7CA"/>
<path opacity="0.3" d="M213.076 160.274L219.682 156.465V233.685C219.683 234.381 219.5 235.065 219.151 235.668C218.803 236.27 218.301 236.77 217.697 237.117L211.171 240.898L213.076 160.274Z" fill="#0F1020"/>
<path d="M205.64 194.303L110.053 139.116C109.644 138.877 109.305 138.536 109.069 138.125C108.833 137.715 108.709 137.25 108.708 136.777V71.5C108.708 71.0266 108.832 70.5615 109.069 70.1514C109.306 69.7414 109.646 69.4009 110.056 69.1643C110.466 68.9277 110.931 68.8033 111.405 68.8036C111.878 68.804 112.343 68.929 112.753 69.1662L208.339 124.353C208.75 124.589 209.09 124.929 209.327 125.339C209.564 125.748 209.689 126.213 209.689 126.687V191.963C209.69 192.437 209.565 192.903 209.328 193.314C209.091 193.724 208.751 194.065 208.34 194.302C207.93 194.539 207.464 194.664 206.99 194.664C206.516 194.664 206.05 194.54 205.64 194.303Z" fill="#EBEBEB"/>
<path d="M201.298 196.854L105.717 141.673C105.307 141.435 104.966 141.094 104.729 140.684C104.492 140.273 104.368 139.808 104.367 139.333V74.074C104.367 73.6006 104.491 73.1355 104.728 72.7254C104.964 72.3154 105.305 71.9749 105.715 71.7383C106.125 71.5017 106.59 71.3773 107.063 71.3776C107.537 71.378 108.002 71.503 108.411 71.7402L203.998 126.927C204.41 127.164 204.752 127.506 204.989 127.918C205.226 128.329 205.35 128.797 205.348 129.272V194.52C205.347 194.994 205.222 195.459 204.985 195.868C204.747 196.278 204.407 196.618 203.996 196.855C203.586 197.091 203.121 197.216 202.647 197.215C202.174 197.215 201.708 197.091 201.298 196.854Z" fill="#F7F8FC"/>
<path d="M90.9137 73.216V169.14C90.9134 170.502 91.2717 171.839 91.9525 173.018C92.6333 174.197 93.6126 175.176 94.7918 175.856L207.476 240.904C208.045 241.232 208.691 241.404 209.348 241.404C210.005 241.404 210.651 241.23 211.22 240.902C211.789 240.573 212.261 240.101 212.59 239.532C212.919 238.963 213.092 238.317 213.093 237.66V160.274L153.662 125.954L143.395 102.274C141.478 97.851 138.189 94.1627 134.014 91.7545L96.4049 70.0185C95.8464 69.696 95.2126 69.5268 94.5677 69.528C93.9227 69.5292 93.2896 69.7007 92.7323 70.0252C92.1749 70.3498 91.7132 70.8158 91.3939 71.3761C91.0745 71.9364 90.9089 72.5711 90.9137 73.216Z" fill="#2AB7CA"/>
<path opacity="0.2" d="M90.9137 73.216V169.14C90.9134 170.502 91.2717 171.839 91.9525 173.018C92.6333 174.197 93.6126 175.176 94.7918 175.856L207.476 240.904C208.045 241.232 208.691 241.404 209.348 241.404C210.005 241.404 210.651 241.23 211.22 240.902C211.789 240.573 212.261 240.101 212.59 239.532C212.919 238.963 213.092 238.317 213.093 237.66V160.274L153.662 125.954L143.395 102.274C141.478 97.851 138.189 94.1627 134.014 91.7545L96.4049 70.0185C95.8464 69.696 95.2126 69.5268 94.5677 69.528C93.9227 69.5292 93.2896 69.7007 92.7323 70.0252C92.1749 70.3498 91.7132 70.8158 91.3939 71.3761C91.0745 71.9364 90.9089 72.5711 90.9137 73.216Z" fill="#0F1020"/>
<path d="M180.214 177.892C179.9 177.709 179.585 177.549 179.276 177.406C179.036 170.027 173.888 161.304 167.596 157.666C165.474 156.436 163.483 155.95 161.767 156.099C159.365 148.308 153.845 140.655 147.416 136.925C139.213 132.189 132.487 135.604 131.835 144.504C131.44 144.23 131.04 143.972 130.639 143.738C124.41 140.146 119.365 143.057 119.365 150.247C119.365 157.437 124.41 166.183 130.639 169.775L180.232 198.41C185.145 201.27 189.126 198.947 189.126 193.262C189.126 187.576 185.128 180.701 180.214 177.892Z" fill="#2AB7CA"/>
<path opacity="0.4" d="M180.214 177.892C179.9 177.709 179.585 177.549 179.276 177.406C179.036 170.027 173.888 161.304 167.596 157.666C165.474 156.436 163.483 155.95 161.767 156.099C159.365 148.308 153.845 140.655 147.416 136.925C139.213 132.189 132.487 135.604 131.835 144.504C131.44 144.23 131.04 143.972 130.639 143.738C124.41 140.146 119.365 143.057 119.365 150.247C119.365 157.437 124.41 166.183 130.639 169.775L180.232 198.41C185.145 201.27 189.126 198.947 189.126 193.262C189.126 187.576 185.128 180.701 180.214 177.892Z" fill="#F7F8FC"/>
<path d="M137.961 177.223L149.647 198.53L162.133 190.962L157.197 188.177V167.087L143.892 159.422V180.683L137.961 177.223Z" fill="#F7F8FC"/>
<path d="M104.344 42.5682C91.8899 42.568 79.7588 46.5326 69.7082 53.8877C59.6577 61.2428 52.2095 71.6066 48.4427 83.4777L43.7123 80.7549C43.5737 80.6737 43.4166 80.6293 43.256 80.6258C43.0954 80.6222 42.9365 80.6598 42.7945 80.7348C42.6524 80.8098 42.5319 80.9199 42.4442 81.0545C42.3566 81.1892 42.3048 81.344 42.2937 81.5043C41.4343 90.6729 42.7573 99.9148 46.1547 108.474C47.8254 112.722 50.086 116.714 52.87 120.332C52.9591 120.444 53.0763 120.531 53.2097 120.584C53.3431 120.637 53.4881 120.654 53.6301 120.633C53.7721 120.612 53.9061 120.554 54.0187 120.465C54.1313 120.376 54.2184 120.259 54.2714 120.126C56.3329 114.955 59.1765 110.132 62.7027 105.826C64.9834 102.995 67.5479 100.406 70.356 98.098C70.5137 97.9694 70.6377 97.8043 70.7173 97.617C70.7968 97.4298 70.8296 97.2259 70.8127 97.0232C70.7958 96.8204 70.7298 96.6248 70.6203 96.4533C70.5108 96.2818 70.3612 96.1395 70.1844 96.0388L64.5102 92.7612C67.5348 81.832 74.1453 72.2368 83.2798 65.517C92.4143 58.7972 103.542 55.343 114.877 55.7092C126.211 56.0755 137.093 60.241 145.774 67.5366C154.456 74.8321 160.433 84.8342 162.745 95.9358C161.428 81.3564 154.705 67.7969 143.899 57.9218C133.092 48.0468 118.983 42.5702 104.344 42.5682Z" fill="#2AB7CA"/>
<path opacity="0.4" d="M104.344 42.5682C91.8899 42.568 79.7588 46.5326 69.7082 53.8877C59.6577 61.2428 52.2095 71.6066 48.4427 83.4777L43.7123 80.7549C43.5737 80.6737 43.4166 80.6293 43.256 80.6258C43.0954 80.6222 42.9365 80.6598 42.7945 80.7348C42.6524 80.8098 42.5319 80.9199 42.4442 81.0545C42.3566 81.1892 42.3048 81.344 42.2937 81.5043C41.4343 90.6729 42.7573 99.9148 46.1547 108.474C47.8254 112.722 50.086 116.714 52.87 120.332C52.9591 120.444 53.0763 120.531 53.2097 120.584C53.3431 120.637 53.4881 120.654 53.6301 120.633C53.7721 120.612 53.9061 120.554 54.0187 120.465C54.1313 120.376 54.2184 120.259 54.2714 120.126C56.3329 114.955 59.1765 110.132 62.7027 105.826C64.9834 102.995 67.5479 100.406 70.356 98.098C70.5137 97.9694 70.6377 97.8043 70.7173 97.617C70.7968 97.4298 70.8296 97.2259 70.8127 97.0232C70.7958 96.8204 70.7298 96.6248 70.6203 96.4533C70.5108 96.2818 70.3612 96.1395 70.1844 96.0388L64.5102 92.7612C67.5348 81.832 74.1453 72.2368 83.2798 65.517C92.4143 58.7972 103.542 55.343 114.877 55.7092C126.211 56.0755 137.093 60.241 145.774 67.5366C154.456 74.8321 160.433 84.8342 162.745 95.9358C161.428 81.3564 154.705 67.7969 143.899 57.9218C133.092 48.0468 118.983 42.5702 104.344 42.5682Z" fill="#F7F8FC"/>
<path d="M217.113 54.7153C223.564 50.9908 223.564 38.9138 217.113 27.7407C210.662 16.5675 200.203 10.5292 193.752 14.2538C187.301 17.9783 187.301 30.0553 193.752 41.2284C200.203 52.4016 210.662 58.4399 217.113 54.7153Z" fill="#2AB7CA"/>
<path opacity="0.2" d="M217.113 54.7153C223.564 50.9908 223.564 38.9138 217.113 27.7407C210.662 16.5675 200.203 10.5292 193.752 14.2538C187.301 17.9783 187.301 30.0553 193.752 41.2284C200.203 52.4016 210.662 58.4399 217.113 54.7153Z" fill="#0F1020"/>
<path d="M216.142 55.2759C222.593 51.5514 222.593 39.4744 216.143 28.3013C209.692 17.1281 199.233 11.0898 192.782 14.8144C186.33 18.5389 186.33 30.6159 192.781 41.789C199.232 52.9622 209.691 59.0004 216.142 55.2759Z" fill="#2AB7CA"/>
<path d="M197.912 40.612L210.628 47.9908C210.783 48.0816 210.959 48.1298 211.138 48.1305C211.318 48.1313 211.494 48.0846 211.65 47.9952C211.805 47.9057 211.935 47.7768 212.024 47.6213C212.114 47.4658 212.161 47.2894 212.161 47.1099V31.3799C212.158 30.9861 212.05 30.6002 211.849 30.2615C211.648 29.9229 211.361 29.6436 211.017 29.4523L198.301 22.0964C198.146 22.0056 197.97 21.9574 197.791 21.9566C197.611 21.9559 197.435 22.0026 197.279 22.092C197.123 22.1814 196.994 22.3104 196.904 22.4659C196.815 22.6213 196.768 22.7977 196.768 22.9772V38.7072C196.775 39.0971 196.885 39.4783 197.085 39.8126C197.286 40.1469 197.571 40.4226 197.912 40.612Z" fill="#2AB7CA"/>
<path opacity="0.6" d="M197.912 40.612L210.628 47.9908C210.783 48.0816 210.959 48.1298 211.138 48.1305C211.318 48.1313 211.494 48.0846 211.65 47.9952C211.805 47.9057 211.935 47.7768 212.024 47.6213C212.114 47.4658 212.161 47.2894 212.161 47.1099V31.3799C212.158 30.9861 212.05 30.6002 211.849 30.2615C211.648 29.9229 211.361 29.6436 211.017 29.4523L198.301 22.0964C198.146 22.0056 197.97 21.9574 197.791 21.9566C197.611 21.9559 197.435 22.0026 197.279 22.092C197.123 22.1814 196.994 22.3104 196.904 22.4659C196.815 22.6213 196.768 22.7977 196.768 22.9772V38.7072C196.775 39.0971 196.885 39.4783 197.085 39.8126C197.286 40.1469 197.571 40.4226 197.912 40.612Z" fill="#F7F8FC"/>
<path d="M199.187 38.324L209.409 44.1984C209.534 44.2723 209.677 44.3111 209.823 44.3108C209.968 44.3106 210.111 44.2713 210.236 44.1971C210.361 44.1229 210.464 44.0164 210.534 43.8889C210.603 43.7613 210.638 43.6174 210.633 43.472V31.6888C210.633 31.3757 210.55 31.0682 210.394 30.7971C210.237 30.526 210.012 30.3009 209.741 30.1444L199.519 24.2471C199.395 24.176 199.254 24.1387 199.111 24.1391C198.967 24.1395 198.827 24.1776 198.703 24.2494C198.579 24.3212 198.476 24.4243 198.405 24.5484C198.333 24.6724 198.295 24.8131 198.295 24.9564V36.7567C198.291 37.0737 198.372 37.3859 198.529 37.6614C198.685 37.9368 198.913 38.1655 199.187 38.324Z" fill="#2AB7CA"/>
<path opacity="0.4" d="M210.633 31.6888V43.472C210.635 43.6159 210.598 43.7577 210.527 43.8828C210.456 44.0079 210.353 44.1118 210.228 44.184C210.104 44.2562 209.962 44.2939 209.818 44.2935C209.674 44.293 209.533 44.2543 209.409 44.1813L199.188 38.324C198.916 38.1693 198.69 37.9454 198.534 37.6751C198.377 37.4048 198.295 37.0978 198.295 36.7853V24.9564C198.294 24.8124 198.33 24.6707 198.401 24.5456C198.473 24.4205 198.576 24.3165 198.7 24.2444C198.825 24.1722 198.966 24.1344 199.11 24.1349C199.254 24.1354 199.395 24.1741 199.519 24.2471L209.741 30.1501C210.012 30.3048 210.238 30.5287 210.395 30.799C210.552 31.0693 210.634 31.3763 210.633 31.6888Z" fill="#F7F8FC"/>
<path d="M210.633 43.0544V43.472C210.635 43.6159 210.598 43.7577 210.527 43.8828C210.456 44.0079 210.353 44.1118 210.228 44.184C210.104 44.2562 209.962 44.2939 209.818 44.2935C209.674 44.293 209.533 44.2543 209.409 44.1813L199.187 38.324C198.916 38.1693 198.69 37.9454 198.534 37.6751C198.377 37.4048 198.295 37.0978 198.295 36.7853V35.6413L200.972 33.3533L204.13 37.8492L207.213 34.1827L210.633 43.0544Z" fill="#F7F8FC"/>
<path d="M201.819 29.8126C201.845 30.2899 201.983 30.7544 202.221 31.1686C202.46 31.5829 202.792 31.9354 203.191 32.1979C203.952 32.6383 204.57 32.2837 204.57 31.4028C204.543 30.925 204.404 30.4603 204.165 30.0459C203.925 29.6316 203.592 29.2794 203.191 29.0176C202.436 28.6 201.819 28.9375 201.819 29.8126Z" fill="#F7F8FC"/>
<path d="M245.741 113.442C252.192 109.718 252.192 97.641 245.742 86.4678C239.291 75.2947 228.832 69.2564 222.381 72.9809C215.93 76.7055 215.929 88.7824 222.38 99.9556C228.831 111.129 239.29 117.167 245.741 113.442Z" fill="#2AB7CA"/>
<path opacity="0.2" d="M245.741 113.442C252.192 109.718 252.192 97.641 245.742 86.4678C239.291 75.2947 228.832 69.2564 222.381 72.9809C215.93 76.7055 215.929 88.7824 222.38 99.9556C228.831 111.129 239.29 117.167 245.741 113.442Z" fill="#0F1020"/>
<path d="M244.773 114.008C251.224 110.283 251.225 98.2065 244.774 87.0334C238.323 75.8602 227.864 69.8219 221.413 73.5465C214.962 77.271 214.962 89.348 221.412 100.521C227.863 111.694 238.322 117.733 244.773 114.008Z" fill="#2AB7CA"/>
<path d="M226.929 80.8236C226.774 80.7345 226.598 80.6877 226.418 80.6881C226.239 80.6884 226.063 80.7359 225.908 80.8256C225.753 80.9154 225.624 81.0444 225.534 81.1996C225.444 81.3548 225.397 81.5309 225.396 81.7102V97.4402C225.396 97.8304 225.5 98.2137 225.696 98.5513C225.891 98.8888 226.173 99.1685 226.512 99.3621L239.256 106.724C239.413 106.822 239.594 106.875 239.779 106.878C239.964 106.881 240.146 106.833 240.306 106.74C240.466 106.647 240.597 106.512 240.687 106.35C240.776 106.188 240.819 106.005 240.812 105.82V94.1455L237.38 86.8296L226.929 80.8236Z" fill="#2AB7CA"/>
<path opacity="0.6" d="M226.929 80.8236C226.774 80.7345 226.598 80.6877 226.418 80.6881C226.239 80.6884 226.063 80.7359 225.908 80.8256C225.753 80.9154 225.624 81.0444 225.534 81.1996C225.444 81.3548 225.397 81.5309 225.396 81.7102V97.4402C225.396 97.8304 225.5 98.2137 225.696 98.5513C225.891 98.8888 226.173 99.1685 226.512 99.3621L239.256 106.724C239.413 106.822 239.594 106.875 239.779 106.878C239.964 106.881 240.146 106.833 240.306 106.74C240.466 106.647 240.597 106.512 240.687 106.35C240.776 106.188 240.819 106.005 240.812 105.82V94.1455L237.38 86.8296L226.929 80.8236Z" fill="#F7F8FC"/>
<path d="M236.882 89.5066L237.328 86.8296L240.76 94.1512L237.643 91.5829C237.345 91.3339 237.118 91.011 236.985 90.6465C236.851 90.2821 236.816 89.889 236.882 89.5066Z" fill="#2AB7CA"/>
<path opacity="0.4" d="M236.882 89.5066L237.328 86.8296L240.76 94.1512L237.643 91.5829C237.345 91.3339 237.118 91.011 236.985 90.6465C236.851 90.2821 236.816 89.889 236.882 89.5066Z" fill="#F7F8FC"/>
<path d="M238.123 95.6498C238.061 95.6489 237.999 95.6311 237.946 95.5984L227.885 89.804C227.805 89.7563 227.747 89.6793 227.723 89.5895C227.7 89.4996 227.713 89.4041 227.759 89.3235C227.805 89.2442 227.881 89.1865 227.97 89.1629C228.059 89.1393 228.154 89.1518 228.233 89.1977L238.301 95.0035C238.38 95.0511 238.438 95.1282 238.462 95.218C238.485 95.3079 238.473 95.4033 238.426 95.484C238.395 95.5359 238.351 95.5787 238.297 95.6078C238.244 95.637 238.184 95.6515 238.123 95.6498Z" fill="#F7F8FC"/>
<path d="M238.123 99.059C238.062 99.0574 238.001 99.0418 237.946 99.0132L227.885 93.2017C227.805 93.154 227.747 93.077 227.723 92.9871C227.7 92.8973 227.713 92.8018 227.759 92.7212C227.805 92.6419 227.881 92.5842 227.97 92.5606C228.059 92.537 228.154 92.5495 228.233 92.5954L238.301 98.384C238.38 98.4317 238.438 98.5087 238.462 98.5985C238.485 98.6884 238.473 98.7839 238.426 98.8645C238.399 98.9218 238.356 98.9703 238.302 99.0047C238.249 99.039 238.187 99.0578 238.123 99.059Z" fill="#F7F8FC"/>
<path d="M238.123 102.468C238.062 102.467 238.001 102.451 237.946 102.422L227.885 96.6108C227.805 96.5631 227.747 96.4861 227.723 96.3963C227.7 96.3064 227.713 96.2109 227.759 96.1303C227.805 96.051 227.881 95.9933 227.97 95.9697C228.059 95.9461 228.154 95.9586 228.233 96.0045L238.301 101.816C238.368 101.854 238.421 101.914 238.45 101.985C238.48 102.057 238.485 102.136 238.465 102.211C238.444 102.285 238.4 102.351 238.338 102.398C238.276 102.444 238.201 102.469 238.123 102.468Z" fill="#F7F8FC"/>
<path d="M185.976 79.4713C192.457 75.7467 192.481 63.6282 186.031 52.4038C179.58 41.1794 169.097 35.0995 162.616 38.824C156.135 42.5486 156.111 54.6671 162.562 65.8915C169.013 77.116 179.496 83.1958 185.976 79.4713Z" fill="#2AB7CA"/>
<path opacity="0.2" d="M185.976 79.4713C192.457 75.7467 192.481 63.6282 186.031 52.4038C179.58 41.1794 169.097 35.0995 162.616 38.824C156.135 42.5486 156.111 54.6671 162.562 65.8915C169.013 77.116 179.496 83.1958 185.976 79.4713Z" fill="#0F1020"/>
<path d="M184.321 79.702C190.772 75.9774 190.772 63.9005 184.321 52.7273C177.87 41.5542 167.411 35.5159 160.96 39.2404C154.509 42.965 154.509 55.042 160.96 66.2151C167.41 77.3882 177.869 83.4265 184.321 79.702Z" fill="#2AB7CA"/>
<path d="M166.057 65.065L178.802 72.4209C178.956 72.5117 179.132 72.5599 179.312 72.5606C179.491 72.5614 179.668 72.5147 179.824 72.4253C179.979 72.3359 180.108 72.2069 180.198 72.0514C180.288 71.896 180.335 71.7195 180.334 71.54V55.81C180.334 55.4191 180.231 55.035 180.035 54.6966C179.839 54.3582 179.558 54.0774 179.219 53.8824L166.452 46.5265C166.297 46.4372 166.122 46.3901 165.943 46.3901C165.765 46.39 165.589 46.437 165.434 46.5263C165.28 46.6155 165.151 46.7439 165.062 46.8986C164.972 47.0532 164.925 47.2287 164.925 47.4074V63.1374C164.927 63.5299 165.033 63.9148 165.232 64.2533C165.431 64.5918 165.716 64.8717 166.057 65.065Z" fill="#2AB7CA"/>
<path opacity="0.6" d="M166.057 65.065L178.802 72.4209C178.956 72.5117 179.132 72.5599 179.312 72.5606C179.491 72.5614 179.668 72.5147 179.824 72.4253C179.979 72.3359 180.108 72.2069 180.198 72.0514C180.288 71.896 180.335 71.7195 180.334 71.54V55.81C180.334 55.4191 180.231 55.035 180.035 54.6966C179.839 54.3582 179.558 54.0774 179.219 53.8824L166.452 46.5265C166.297 46.4372 166.122 46.3901 165.943 46.3901C165.765 46.39 165.589 46.437 165.434 46.5263C165.28 46.6155 165.151 46.7439 165.062 46.8986C164.972 47.0532 164.925 47.2287 164.925 47.4074V63.1374C164.927 63.5299 165.033 63.9148 165.232 64.2533C165.431 64.5918 165.716 64.8717 166.057 65.065Z" fill="#F7F8FC"/>
<path d="M169.529 56.8053V62.1421C169.529 62.3529 169.613 62.5552 169.762 62.7043C169.911 62.8534 170.113 62.9372 170.324 62.9372H174.952C175.104 62.9371 175.253 62.8932 175.382 62.8108C175.51 62.7284 175.611 62.6109 175.675 62.4723C175.738 62.3337 175.76 62.1798 175.738 62.029C175.717 61.8782 175.652 61.7367 175.552 61.6216L170.925 56.2848C170.819 56.1624 170.678 56.0754 170.521 56.0354C170.364 55.9953 170.198 56.0042 170.047 56.0608C169.895 56.1174 169.764 56.2191 169.671 56.3521C169.579 56.4852 169.529 56.6433 169.529 56.8053Z" fill="#F7F8FC"/>
<path d="M205.434 57.4974C205.326 57.4974 205.223 57.4547 205.147 57.3785C205.07 57.3023 205.028 57.199 205.028 57.0913V56.0102C205.028 55.9025 205.07 55.7992 205.147 55.7231C205.223 55.6469 205.326 55.6041 205.434 55.6041C205.487 55.6041 205.539 55.6147 205.588 55.6351C205.637 55.6556 205.682 55.6856 205.719 55.7234C205.756 55.7612 205.785 55.806 205.805 55.8553C205.825 55.9045 205.835 55.9572 205.834 56.0102V57.0913C205.835 57.1444 205.825 57.1971 205.805 57.2463C205.785 57.2955 205.756 57.3404 205.719 57.3782C205.682 57.4159 205.637 57.446 205.588 57.4664C205.539 57.4869 205.487 57.4974 205.434 57.4974Z" fill="#2AB7CA"/>
<path d="M205.434 118.004C205.326 118.004 205.223 117.961 205.147 117.885C205.07 117.808 205.028 117.705 205.028 117.597V115.435C205.028 115.328 205.07 115.224 205.147 115.148C205.223 115.072 205.326 115.029 205.434 115.029C205.487 115.029 205.539 115.04 205.588 115.06C205.637 115.081 205.682 115.111 205.719 115.148C205.756 115.186 205.786 115.231 205.805 115.28C205.825 115.33 205.835 115.382 205.834 115.435V117.597C205.835 117.651 205.825 117.703 205.805 117.752C205.786 117.802 205.756 117.847 205.719 117.884C205.682 117.922 205.637 117.952 205.588 117.973C205.539 117.993 205.487 118.004 205.434 118.004ZM205.434 113.679C205.326 113.679 205.223 113.636 205.147 113.56C205.07 113.484 205.028 113.381 205.028 113.273V111.117C205.028 111.009 205.07 110.906 205.147 110.83C205.223 110.753 205.326 110.711 205.434 110.711C205.487 110.711 205.539 110.721 205.588 110.742C205.637 110.762 205.682 110.792 205.719 110.83C205.756 110.868 205.786 110.912 205.805 110.962C205.825 111.011 205.835 111.064 205.834 111.117V113.256C205.837 113.31 205.829 113.365 205.81 113.416C205.792 113.468 205.763 113.514 205.725 113.554C205.688 113.594 205.643 113.625 205.592 113.647C205.542 113.668 205.488 113.679 205.434 113.679ZM205.434 109.361C205.326 109.361 205.223 109.318 205.147 109.242C205.07 109.166 205.028 109.062 205.028 108.955V106.792C205.028 106.685 205.07 106.581 205.147 106.505C205.223 106.429 205.326 106.386 205.434 106.386C205.487 106.386 205.539 106.397 205.588 106.417C205.637 106.438 205.682 106.468 205.719 106.506C205.756 106.543 205.786 106.588 205.805 106.637C205.825 106.687 205.835 106.739 205.834 106.792V108.955C205.835 109.008 205.825 109.06 205.805 109.11C205.786 109.159 205.756 109.204 205.719 109.241C205.682 109.279 205.637 109.309 205.588 109.33C205.539 109.35 205.487 109.361 205.434 109.361ZM205.434 105.036C205.326 105.036 205.223 104.994 205.147 104.917C205.07 104.841 205.028 104.738 205.028 104.63V102.468C205.028 102.415 205.038 102.362 205.059 102.314C205.079 102.265 205.109 102.22 205.147 102.183C205.185 102.146 205.229 102.116 205.279 102.097C205.328 102.077 205.381 102.067 205.434 102.068C205.54 102.068 205.642 102.11 205.717 102.185C205.792 102.26 205.834 102.362 205.834 102.468V104.63C205.835 104.683 205.825 104.736 205.805 104.785C205.786 104.834 205.756 104.879 205.719 104.917C205.682 104.955 205.637 104.985 205.588 105.005C205.539 105.026 205.487 105.036 205.434 105.036ZM205.434 100.718C205.326 100.718 205.223 100.675 205.147 100.599C205.07 100.523 205.028 100.419 205.028 100.312V98.1495C205.028 98.0418 205.07 97.9385 205.147 97.8623C205.223 97.7861 205.326 97.7434 205.434 97.7434C205.487 97.7434 205.539 97.7539 205.588 97.7744C205.637 97.7948 205.682 97.8249 205.719 97.8626C205.756 97.9004 205.786 97.9453 205.805 97.9945C205.825 98.0437 205.835 98.0964 205.834 98.1495V100.312C205.835 100.365 205.825 100.417 205.805 100.467C205.786 100.516 205.756 100.561 205.719 100.598C205.682 100.636 205.637 100.666 205.588 100.687C205.539 100.707 205.487 100.718 205.434 100.718ZM205.434 96.3934C205.326 96.3934 205.223 96.3506 205.147 96.2745C205.07 96.1983 205.028 96.095 205.028 95.9873V93.808C205.028 93.7003 205.07 93.597 205.147 93.5208C205.223 93.4447 205.326 93.4019 205.434 93.4019C205.487 93.4019 205.539 93.4124 205.588 93.4329C205.637 93.4534 205.682 93.4834 205.719 93.5212C205.756 93.559 205.786 93.6038 205.805 93.653C205.825 93.7023 205.835 93.7549 205.834 93.808V95.9702C205.837 96.0246 205.829 96.0792 205.81 96.1304C205.792 96.1817 205.763 96.2286 205.725 96.2682C205.688 96.3078 205.643 96.3394 205.592 96.3609C205.542 96.3825 205.488 96.3935 205.434 96.3934ZM205.434 92.0691C205.381 92.0699 205.328 92.0601 205.279 92.0403C205.229 92.0205 205.185 91.9911 205.147 91.9539C205.109 91.9166 205.079 91.8722 205.059 91.8233C205.038 91.7743 205.028 91.7218 205.028 91.6687V89.5066C205.028 89.3988 205.07 89.2955 205.147 89.2194C205.223 89.1432 205.326 89.1004 205.434 89.1004C205.487 89.1004 205.539 89.111 205.588 89.1315C205.637 89.1519 205.682 89.1819 205.719 89.2197C205.756 89.2575 205.786 89.3023 205.805 89.3516C205.825 89.4008 205.835 89.4535 205.834 89.5066V91.6687C205.837 91.7232 205.829 91.7777 205.81 91.829C205.792 91.8802 205.763 91.9271 205.725 91.9668C205.688 92.0064 205.643 92.0379 205.592 92.0595C205.542 92.081 205.488 92.0921 205.434 92.092V92.0691ZM205.434 87.7505C205.326 87.7505 205.223 87.7077 205.147 87.6316C205.07 87.5554 205.028 87.4521 205.028 87.3444V85.1822C205.028 85.0745 205.07 84.9712 205.147 84.8951C205.223 84.8189 205.326 84.7761 205.434 84.7761C205.487 84.7761 205.539 84.7867 205.588 84.8071C205.637 84.8276 205.682 84.8576 205.719 84.8954C205.756 84.9332 205.786 84.978 205.805 85.0273C205.825 85.0765 205.835 85.1292 205.834 85.1822V87.3444C205.835 87.3975 205.825 87.4501 205.805 87.4994C205.786 87.5486 205.756 87.5934 205.719 87.6312C205.682 87.669 205.637 87.699 205.588 87.7195C205.539 87.74 205.487 87.7505 205.434 87.7505ZM205.434 83.4262C205.38 83.4262 205.328 83.4157 205.278 83.3953C205.229 83.3749 205.184 83.345 205.147 83.3072C205.109 83.2695 205.079 83.2248 205.059 83.1755C205.038 83.1262 205.028 83.0734 205.028 83.0201V80.8636C205.028 80.7559 205.07 80.6526 205.147 80.5765C205.223 80.5003 205.326 80.4575 205.434 80.4575C205.487 80.4575 205.539 80.4681 205.588 80.4885C205.637 80.509 205.682 80.539 205.719 80.5768C205.756 80.6146 205.786 80.6594 205.805 80.7087C205.825 80.7579 205.835 80.8106 205.834 80.8636V83.0201C205.835 83.0731 205.825 83.1258 205.805 83.1751C205.786 83.2243 205.756 83.2691 205.719 83.3069C205.682 83.3447 205.637 83.3747 205.588 83.3952C205.539 83.4157 205.487 83.4262 205.434 83.4262ZM205.434 79.1076C205.326 79.1076 205.223 79.0648 205.147 78.9886C205.07 78.9125 205.028 78.8092 205.028 78.7015V76.5393C205.028 76.4316 205.07 76.3283 205.147 76.2521C205.223 76.176 205.326 76.1332 205.434 76.1332C205.487 76.1332 205.539 76.1437 205.588 76.1642C205.637 76.1847 205.682 76.2147 205.719 76.2525C205.756 76.2903 205.786 76.3351 205.805 76.3843C205.825 76.4336 205.835 76.4863 205.834 76.5393V78.7015C205.835 78.7545 205.825 78.8072 205.805 78.8565C205.786 78.9057 205.756 78.9505 205.719 78.9883C205.682 79.0261 205.637 79.0561 205.588 79.0766C205.539 79.0971 205.487 79.1076 205.434 79.1076ZM205.434 74.7833C205.326 74.7833 205.223 74.7405 205.147 74.6643C205.07 74.5882 205.028 74.4849 205.028 74.3772V72.215C205.028 72.1619 205.038 72.1094 205.059 72.0604C205.079 72.0115 205.109 71.9671 205.147 71.9298C205.185 71.8926 205.229 71.8632 205.279 71.8434C205.328 71.8236 205.381 71.8138 205.434 71.8146C205.54 71.8146 205.642 71.8568 205.717 71.9319C205.792 72.007 205.834 72.1088 205.834 72.215V74.36C205.837 74.4145 205.829 74.469 205.81 74.5203C205.792 74.5715 205.763 74.6184 205.725 74.658C205.688 74.6977 205.643 74.7292 205.592 74.7508C205.542 74.7723 205.488 74.7834 205.434 74.7833ZM205.434 70.4647C205.326 70.4647 205.223 70.4219 205.147 70.3457C205.07 70.2696 205.028 70.1663 205.028 70.0586V67.8964C205.028 67.7887 205.07 67.6854 205.147 67.6092C205.223 67.5331 205.326 67.4903 205.434 67.4903C205.487 67.4903 205.539 67.5008 205.588 67.5213C205.637 67.5418 205.682 67.5718 205.719 67.6096C205.756 67.6474 205.786 67.6922 205.805 67.7414C205.825 67.7907 205.835 67.8433 205.834 67.8964V70.0586C205.835 70.1116 205.825 70.1643 205.805 70.2135C205.786 70.2628 205.756 70.3076 205.719 70.3454C205.682 70.3832 205.637 70.4132 205.588 70.4337C205.539 70.4541 205.487 70.4647 205.434 70.4647ZM205.434 66.1404C205.326 66.1404 205.223 66.0976 205.147 66.0214C205.07 65.9452 205.028 65.8419 205.028 65.7342V63.5721C205.028 63.4644 205.07 63.3611 205.147 63.2849C205.223 63.2087 205.326 63.166 205.434 63.166C205.487 63.166 205.539 63.1765 205.588 63.197C205.637 63.2175 205.682 63.2475 205.719 63.2852C205.756 63.323 205.786 63.3679 205.805 63.4171C205.825 63.4663 205.835 63.519 205.834 63.5721V65.7342C205.835 65.7873 205.825 65.84 205.805 65.8892C205.786 65.9385 205.756 65.9833 205.719 66.0211C205.682 66.0589 205.637 66.0889 205.588 66.1093C205.539 66.1298 205.487 66.1404 205.434 66.1404ZM205.434 61.816C205.381 61.8168 205.328 61.807 205.279 61.7872C205.229 61.7674 205.185 61.7381 205.147 61.7008C205.109 61.6635 205.079 61.6191 205.059 61.5702C205.038 61.5212 205.028 61.4687 205.028 61.4156V59.2535C205.028 59.1458 205.07 59.0425 205.147 58.9663C205.223 58.8901 205.326 58.8474 205.434 58.8474C205.487 58.8473 205.539 58.8579 205.588 58.8784C205.637 58.8989 205.682 58.9289 205.719 58.9666C205.756 59.0044 205.786 59.0492 205.805 59.0985C205.825 59.1477 205.835 59.2004 205.834 59.2535V61.4156C205.834 61.4682 205.824 61.5203 205.804 61.5689C205.784 61.6174 205.754 61.6616 205.717 61.6988C205.68 61.7359 205.636 61.7654 205.587 61.7856C205.538 61.8057 205.486 61.816 205.434 61.816Z" fill="#2AB7CA"/>
<path d="M205.434 121.264C205.381 121.265 205.328 121.255 205.279 121.235C205.229 121.215 205.185 121.186 205.147 121.149C205.109 121.111 205.079 121.067 205.059 121.018C205.038 120.969 205.028 120.917 205.028 120.864V119.783C205.028 119.675 205.07 119.572 205.147 119.495C205.223 119.419 205.326 119.376 205.434 119.376C205.487 119.376 205.539 119.387 205.588 119.407C205.637 119.428 205.682 119.458 205.719 119.496C205.756 119.533 205.785 119.578 205.805 119.628C205.825 119.677 205.835 119.729 205.834 119.783V120.864C205.834 120.97 205.792 121.072 205.717 121.147C205.642 121.222 205.54 121.264 205.434 121.264Z" fill="#2AB7CA"/>
<path d="M215.644 94.6603C215.569 94.6612 215.495 94.6407 215.431 94.6012C215.367 94.5617 215.316 94.5048 215.283 94.4372C215.259 94.3896 215.245 94.3377 215.241 94.2844C215.237 94.2311 215.243 94.1775 215.26 94.1269C215.278 94.0762 215.305 94.0295 215.34 93.9895C215.375 93.9495 215.418 93.9169 215.467 93.8938L216.433 93.4133C216.481 93.3896 216.532 93.3755 216.585 93.3718C216.638 93.368 216.691 93.3747 216.741 93.3915C216.791 93.4082 216.837 93.4346 216.877 93.4693C216.917 93.504 216.95 93.5462 216.974 93.5935C216.997 93.6408 217.012 93.6923 217.015 93.7451C217.019 93.7979 217.012 93.8509 216.996 93.9011C216.979 93.9513 216.952 93.9977 216.918 94.0376C216.883 94.0776 216.841 94.1104 216.794 94.134L215.827 94.6202C215.77 94.6476 215.707 94.6614 215.644 94.6603Z" fill="#2AB7CA"/>
<path d="M210.885 97.0284C210.81 97.0293 210.736 97.0088 210.672 96.9693C210.608 96.9298 210.557 96.8729 210.524 96.8053C210.495 96.7565 210.477 96.7021 210.47 96.6457C210.464 96.5892 210.47 96.5321 210.487 96.478C210.504 96.4239 210.533 96.3741 210.571 96.3319C210.609 96.2897 210.655 96.2561 210.707 96.2333L213.087 95.0492C213.136 95.021 213.19 95.0034 213.247 94.9974C213.303 94.9913 213.36 94.9972 213.413 95.0144C213.467 95.0316 213.517 95.0599 213.559 95.0974C213.601 95.1349 213.635 95.1809 213.659 95.2323C213.687 95.2813 213.705 95.3356 213.711 95.3918C213.717 95.448 213.711 95.5049 213.694 95.5587C213.677 95.6126 213.648 95.6622 213.611 95.7045C213.573 95.7468 213.527 95.7808 213.476 95.8043L211.068 96.9883C211.011 97.0157 210.948 97.0295 210.885 97.0284Z" fill="#2AB7CA"/>
<path d="M207.539 98.6929C207.464 98.6938 207.39 98.6733 207.326 98.6338C207.262 98.5943 207.211 98.5374 207.178 98.4698C207.149 98.421 207.131 98.3666 207.124 98.3102C207.118 98.2538 207.123 98.1966 207.141 98.1425C207.158 98.0884 207.187 98.0386 207.225 97.9964C207.263 97.9542 207.309 97.9206 207.361 97.8978L208.328 97.4173C208.377 97.3891 208.431 97.3714 208.487 97.3654C208.544 97.3594 208.601 97.3652 208.654 97.3825C208.708 97.3997 208.758 97.428 208.8 97.4655C208.842 97.503 208.876 97.5489 208.9 97.6004C208.948 97.6967 208.955 97.808 208.921 97.9099C208.886 98.0117 208.813 98.0958 208.717 98.1438L207.75 98.6242C207.687 98.6664 207.614 98.6901 207.539 98.6929Z" fill="#2AB7CA"/>
<path d="M192.564 69.3836C192.494 69.3841 192.426 69.3664 192.366 69.3323C192.306 69.2982 192.256 69.2488 192.22 69.1891L191.648 68.2625C191.618 68.2169 191.596 68.1654 191.586 68.1113C191.576 68.0571 191.577 68.0015 191.59 67.9478C191.602 67.8941 191.625 67.8435 191.658 67.7993C191.691 67.755 191.732 67.718 191.78 67.6905C191.826 67.6614 191.878 67.6419 191.932 67.633C191.986 67.6242 192.042 67.6262 192.095 67.639C192.148 67.6518 192.198 67.675 192.243 67.7075C192.287 67.7399 192.324 67.7808 192.352 67.8278L192.924 68.7544C192.962 68.8157 192.983 68.8861 192.985 68.9583C192.986 69.0305 192.968 69.1017 192.932 69.1644C192.896 69.2272 192.844 69.279 192.781 69.3146C192.719 69.3502 192.647 69.3681 192.575 69.3664L192.564 69.3836Z" fill="#2AB7CA"/>
<path d="M201.441 84.0325C201.371 84.0329 201.302 84.0152 201.241 83.9812C201.18 83.9471 201.129 83.8978 201.092 83.8381L199.983 82.0076C199.952 81.9622 199.93 81.9109 199.92 81.8569C199.909 81.803 199.91 81.7474 199.921 81.6937C199.933 81.6399 199.955 81.5891 199.987 81.5443C200.019 81.4994 200.06 81.4615 200.107 81.4328C200.153 81.4041 200.206 81.3853 200.26 81.3774C200.315 81.3695 200.37 81.3727 200.423 81.3869C200.476 81.4011 200.526 81.4259 200.569 81.4598C200.612 81.4938 200.648 81.5361 200.675 81.5844L201.784 83.4148C201.814 83.4612 201.833 83.5129 201.842 83.567C201.851 83.6211 201.849 83.6763 201.836 83.7296C201.823 83.7829 201.8 83.8331 201.767 83.8772C201.735 83.9214 201.694 83.9586 201.647 83.9868C201.584 84.0207 201.513 84.0365 201.441 84.0325ZM199.222 80.3717C199.152 80.3721 199.083 80.3544 199.022 80.3204C198.961 80.2863 198.909 80.237 198.873 80.1772L197.763 78.3468C197.734 78.3004 197.715 78.2487 197.706 78.1946C197.697 78.1406 197.699 78.0853 197.712 78.032C197.725 77.9787 197.748 77.9286 197.78 77.8844C197.813 77.8403 197.854 77.803 197.901 77.7748C197.947 77.745 197.998 77.7248 198.053 77.7155C198.107 77.7062 198.162 77.7081 198.216 77.7209C198.269 77.7337 198.32 77.7573 198.364 77.7902C198.408 77.823 198.445 77.8645 198.473 77.9121L199.582 79.7425C199.618 79.8042 199.637 79.874 199.638 79.9451C199.638 80.0163 199.62 80.0864 199.586 80.1487C199.551 80.2109 199.501 80.2631 199.44 80.3002C199.38 80.3373 199.31 80.358 199.239 80.3603L199.222 80.3717ZM197.003 76.7109C196.932 76.7096 196.863 76.6906 196.802 76.6556C196.741 76.6206 196.69 76.5708 196.654 76.5107L195.544 74.6803C195.501 74.5893 195.493 74.4854 195.522 74.3889C195.551 74.2923 195.614 74.21 195.701 74.1579C195.787 74.1058 195.89 74.0877 195.989 74.1071C196.088 74.1265 196.176 74.182 196.236 74.2628L197.34 76.076C197.371 76.1216 197.392 76.1731 197.402 76.2272C197.412 76.2814 197.411 76.337 197.399 76.3907C197.387 76.4444 197.363 76.495 197.331 76.5392C197.298 76.5835 197.256 76.6205 197.208 76.648C197.146 76.6861 197.075 76.7078 197.003 76.7109ZM194.783 73.0444C194.713 73.0443 194.645 73.0263 194.584 72.9923C194.522 72.9583 194.471 72.9093 194.434 72.8499L193.325 71.0195C193.297 70.9737 193.279 70.9229 193.271 70.8701C193.263 70.8173 193.266 70.7634 193.279 70.7116C193.292 70.6599 193.315 70.6111 193.347 70.5683C193.379 70.5254 193.419 70.4892 193.465 70.4618C193.511 70.4344 193.561 70.4163 193.614 70.4085C193.667 70.4007 193.721 70.4034 193.773 70.4164C193.824 70.4294 193.873 70.4525 193.916 70.4843C193.959 70.5162 193.995 70.5561 194.022 70.602L195.132 72.4324C195.17 72.4936 195.191 72.5641 195.193 72.6363C195.194 72.7085 195.176 72.7797 195.14 72.8424C195.104 72.9051 195.052 72.957 194.989 72.9926C194.927 73.0281 194.855 73.046 194.783 73.0444Z" fill="#2AB7CA"/>
<path d="M203.106 86.7895C203.036 86.7889 202.968 86.7701 202.907 86.735C202.847 86.6999 202.797 86.6497 202.762 86.5894L202.19 85.6684C202.14 85.5769 202.127 85.4697 202.154 85.3689C202.181 85.2681 202.246 85.1815 202.335 85.1271C202.424 85.0726 202.53 85.0546 202.632 85.0765C202.734 85.0985 202.824 85.1589 202.883 85.2452L203.455 86.1718C203.485 86.2177 203.506 86.2695 203.516 86.3239C203.526 86.3783 203.524 86.4341 203.511 86.4878C203.498 86.5416 203.474 86.592 203.441 86.6361C203.408 86.6801 203.365 86.7168 203.317 86.7438C203.252 86.7782 203.179 86.794 203.106 86.7895Z" fill="#2AB7CA"/>
<path d="M85.5825 147.856L59.9226 163.031V177.211L46.5264 184.716V192.341L71.3855 206.761L110.436 184.848V162.276L85.5825 147.856Z" fill="#263238"/>
<path d="M46.5264 184.716L71.3855 199.136V206.761L46.5264 192.341V184.716Z" fill="#5C6B73"/>
<path d="M84.776 177.457V191.637L71.3855 199.136V206.761L110.436 184.848V162.276L84.776 177.457Z" fill="#263238"/>
<path d="M71.3855 199.136L84.776 191.637L59.9226 177.211L46.5264 184.716L71.3855 199.136Z" fill="#37474F"/>
<path d="M84.776 191.637V177.457L59.9226 163.031V177.211L84.776 191.637Z" fill="#5C6B73"/>
<path d="M84.776 177.457L59.9226 163.031L85.5825 147.856L110.436 162.276L84.776 177.457Z" fill="#37474F"/>
<path d="M91.8174 110.608C91.8174 110.608 85.697 119.188 89.3349 122.156C92.9728 125.125 100.952 122.728 101.273 121.315C101.593 119.903 91.8174 110.608 91.8174 110.608Z" fill="#263238"/>
<path d="M64.476 185.7L55.4841 197.666L57.9838 199.639C57.9838 199.639 61.5874 198.884 62.8629 194.125C63.6108 191.361 64.1499 188.545 64.476 185.7Z" fill="#FFA8A7"/>
<path d="M65.2881 184.888C65.2881 184.888 67.7878 187.176 66.6838 189.183C65.5798 191.191 63.6636 192.844 63.6064 195.515C63.5492 198.187 62.2108 202.951 59.2478 203.706C56.2848 204.461 53.3848 203.432 53.442 202.379C53.4992 201.327 55.484 197.666 55.484 197.666C55.484 197.666 58.2068 199.353 60.2145 197.723C62.2222 196.093 62.6855 189.246 62.6855 189.246L65.2881 184.888Z" fill="#2AB7CA"/>
<path opacity="0.2" d="M65.2881 184.888C65.2881 184.888 67.7878 187.176 66.6838 189.183C65.5798 191.191 63.6636 192.844 63.6064 195.515C63.5492 198.187 62.2108 202.951 59.2478 203.706C56.2848 204.461 53.3848 203.432 53.442 202.379C53.4992 201.327 55.484 197.666 55.484 197.666C55.484 197.666 58.2068 199.353 60.2145 197.723C62.2222 196.093 62.6855 189.246 62.6855 189.246L65.2881 184.888Z" fill="#0F1020"/>
<path d="M80.652 147.845C80.652 147.845 60.5976 156.328 58.9732 157.163C57.3487 157.998 54.5001 159.451 54.7861 165.989C55.0721 172.527 56.7138 188.72 56.7138 188.72L67.7076 167.556L96.0959 154.062L80.652 147.845Z" fill="#2AB7CA"/>
<path opacity="0.5" d="M80.652 147.845C80.652 147.845 60.5976 156.328 58.9732 157.163C57.3487 157.998 54.5001 159.451 54.7861 165.989C55.0721 172.527 56.7138 188.72 56.7138 188.72L67.7076 167.556L96.0959 154.062L80.652 147.845Z" fill="#0F1020"/>
<path d="M55.896 180.34C56.3193 184.962 56.7025 188.72 56.7025 188.72L67.6964 167.556L87.9394 157.918L83.3634 154.32C76.8941 157.569 67.4962 162.282 64.6876 163.724C61.1184 165.554 60.0144 170.731 56.937 177.921C56.5881 178.71 56.2449 179.511 55.896 180.34Z" fill="#2AB7CA"/>
<path opacity="0.7" d="M55.896 180.34C56.3193 184.962 56.7025 188.72 56.7025 188.72L67.6964 167.556L87.9394 157.918L83.3634 154.32C76.8941 157.569 67.4962 162.282 64.6876 163.724C61.1184 165.554 60.0144 170.731 56.937 177.921C56.5881 178.71 56.2449 179.511 55.896 180.34Z" fill="#0F1020"/>
<path d="M82.3052 152.169L84.3758 155.298L82.757 155.544L82.3052 152.169Z" fill="#2AB7CA"/>
<path opacity="0.7" d="M82.3052 152.169L84.3758 155.298L82.757 155.544L82.3052 152.169Z" fill="#0F1020"/>
<path d="M55.5927 202.379C55.5927 202.379 55.8787 202.86 55.8787 205.279C55.8787 207.699 54.912 208.208 53.7165 208.614C52.5211 209.02 48.9689 211.623 47.9965 212.755C47.0241 213.888 43.1002 215.043 39.2221 214.368C35.3439 213.693 34.5259 211.131 36.3907 209.489C38.2554 207.848 43.5693 204.856 43.5693 204.856L55.5927 202.379Z" fill="#2AB7CA"/>
<path d="M102.028 152.856L93.4019 150.859C93.4019 150.859 69.4409 162.871 65.8716 164.702C62.3023 166.532 61.2041 171.714 58.1153 178.904C55.8273 184.316 52.7785 191.74 50.7822 196.202C50.7822 196.202 52.2008 199.965 56.6967 199.022C58.2182 195.698 60.9066 192.73 64.8191 187.444C67.3296 184.18 69.1122 180.416 70.0472 176.405C70.196 175.691 70.5434 175.033 71.0493 174.508C71.5553 173.983 72.1993 173.611 72.9072 173.436C76.8597 172.475 84.9192 170.387 93.4305 167.459C105.425 163.329 102.028 152.856 102.028 152.856Z" fill="#2AB7CA"/>
<path opacity="0.5" d="M102.028 152.856L93.4019 150.859C93.4019 150.859 69.4409 162.871 65.8716 164.702C62.3023 166.532 61.2041 171.714 58.1153 178.904C55.8273 184.316 52.7785 191.74 50.7822 196.202C50.7822 196.202 52.2008 199.965 56.6967 199.022C58.2182 195.698 60.9066 192.73 64.8191 187.444C67.3296 184.18 69.1122 180.416 70.0472 176.405C70.196 175.691 70.5434 175.033 71.0493 174.508C71.5553 173.983 72.1993 173.611 72.9072 173.436C76.8597 172.475 84.9192 170.387 93.4305 167.459C105.425 163.329 102.028 152.856 102.028 152.856Z" fill="#0F1020"/>
<path d="M50.7821 196.196C50.1243 197.666 49.5809 198.816 49.2091 199.462C47.7048 202.076 43.3175 204.908 41.7731 206.246C40.2287 207.585 39.9027 208.088 41.3785 209.22C45.1136 212.08 48.3511 208.957 50.4447 206.932C51.8426 205.649 53.3771 204.523 55.0207 203.575C55.1388 203.51 55.2414 203.42 55.3214 203.311C55.4014 203.202 55.4569 203.078 55.484 202.946C55.7158 201.59 56.1255 200.27 56.7023 199.022C52.2007 199.965 50.7821 196.196 50.7821 196.196Z" fill="#FFA8A7"/>
<path d="M92.8814 161.047L77.7978 169.752L52.7156 155.252L67.7992 146.363L92.8814 161.047Z" fill="#37474F"/>
<path d="M79.4166 158.564L73.7595 155.298L77.3059 153.25L82.9687 156.516L79.4166 158.564Z" fill="#263238"/>
<path d="M77.1515 167.579L84.7762 163.089L69.8813 154.074L77.1515 167.579Z" fill="#263238"/>
<path d="M77.5976 140.666L71.563 143.526C69.7605 143.982 67.983 144.532 66.2377 145.174C66.2377 145.174 62.0392 146.89 61.8448 148.034C61.6503 149.178 64.9965 151.872 67.9308 150.55C68.7044 150.144 69.5301 149.846 70.3847 149.664C72.1689 149.494 73.8551 148.77 75.2067 147.593L80.0858 146.255C80.0858 146.255 82.6026 141.37 77.5976 140.666Z" fill="#FFA8A7"/>
<path d="M73.6907 149.086C72.9929 149.835 71.0023 151.723 70.5676 152.266C70.1329 152.81 69.1033 151.408 70.9051 149.321C72.4622 148.748 73.9269 147.95 75.2523 146.953C74.7876 147.703 74.2656 148.416 73.6907 149.086Z" fill="#FFA8A7"/>
<path d="M89.9471 119.685C88.5606 119.464 87.1406 119.742 85.9401 120.47C84.7396 121.198 83.8366 122.329 83.392 123.661C82.7522 125.583 82.3395 127.574 82.1622 129.592C81.6417 135.804 81.4987 138.91 81.4987 138.91L75.2524 141.77C75.2524 141.77 78.6272 141.93 78.3984 146.689L86.1719 144.716L89.9471 119.685Z" fill="#2AB7CA"/>
<path opacity="0.3" d="M89.9471 119.685C88.5606 119.464 87.1406 119.742 85.9401 120.47C84.7396 121.198 83.8366 122.329 83.392 123.661C82.7522 125.583 82.3395 127.574 82.1622 129.592C81.6417 135.804 81.4987 138.91 81.4987 138.91L75.2524 141.77C75.2524 141.77 78.5986 141.93 78.3984 146.689L86.1719 144.716L89.9471 119.685Z" fill="#F7F8FC"/>
<path d="M81.4985 138.91C82.1998 139.129 82.8337 139.522 83.3404 140.054C83.3404 140.054 82.5853 138.624 81.5329 138.184L81.4985 138.91Z" fill="#2AB7CA"/>
<path opacity="0.1" d="M81.4985 138.91C82.1998 139.129 82.8337 139.522 83.3404 140.054C83.3404 140.054 82.5853 138.624 81.5329 138.184L81.4985 138.91Z" fill="#F7F8FC"/>
<path d="M87.2129 105.58C87.2129 105.58 83.3576 104.436 84.7475 100.083C86.1375 95.7299 95.9702 93.8652 103.372 100.083C103.372 100.083 108.566 99.282 108.566 106.535C108.566 113.788 105.66 117.1 110.133 118.987C110.133 118.987 107.404 121.573 105.197 118.987C105.197 118.987 104.733 124.65 96.3649 122.677L87.2129 105.58Z" fill="#263238"/>
<path d="M99.7969 122.156L104.178 124.021V136.868C102.807 140.156 102.064 143.671 101.988 147.233V153.593C101.988 153.593 93.0302 156.785 86.0861 153.33C82.7227 151.66 80.6406 147.845 80.6406 147.845C80.6406 147.845 84.3415 145.666 84.3415 143.006C84.2695 140.928 84.0227 138.859 83.6036 136.822C82.7936 136.018 82.1798 135.037 81.8098 133.957C81.4398 132.877 81.3235 131.726 81.47 130.593C81.9619 126.349 89.9471 119.685 89.9471 119.685L92.9215 120.091L99.7969 122.156Z" fill="#2AB7CA"/>
<path d="M99.7969 122.156L92.9214 120.091V111.769H99.7969V122.156Z" fill="#FFA8A7"/>
<path d="M92.9214 120.12C94.3219 119.597 95.6016 118.794 96.6832 117.762C97.7647 116.73 98.6254 115.489 99.2134 114.114V111.826H92.9214V120.12Z" fill="#F28F8F"/>
<path d="M91.3197 100.495C91.3197 100.495 85.0277 100.861 85.8056 111.62C86.166 116.591 87.3272 119.165 91.1596 118.976C95.4953 118.764 101.656 115.784 101.255 107.273C100.855 98.7615 91.3197 100.495 91.3197 100.495Z" fill="#FFA8A7"/>
<path d="M99.7968 111.769C99.7968 111.769 98.0808 112.226 98.0808 109.755C98.0808 109.755 90.416 109.235 88.7229 101.627C88.7229 101.627 89.4779 99.3392 94.2656 99.3392C99.0532 99.3392 103.069 103.566 101.822 109.384L99.7968 111.769Z" fill="#263238"/>
<path d="M90.4159 109.458V113.159L88.248 112.495L90.4159 109.458Z" fill="#F28F8F"/>
<path d="M93.6707 109.853C93.6707 110.002 93.6263 110.148 93.5431 110.273C93.4598 110.397 93.3416 110.494 93.2033 110.551C93.065 110.608 92.9129 110.622 92.7663 110.593C92.6197 110.563 92.4851 110.491 92.3798 110.384C92.2744 110.278 92.2029 110.143 92.1745 109.996C92.146 109.85 92.1618 109.698 92.2198 109.56C92.2778 109.422 92.3755 109.304 92.5004 109.222C92.6253 109.14 92.7718 109.096 92.9214 109.098C93.0203 109.098 93.1182 109.117 93.2095 109.155C93.3008 109.193 93.3836 109.249 93.4533 109.319C93.5229 109.389 93.578 109.473 93.6153 109.564C93.6526 109.656 93.6715 109.754 93.6707 109.853Z" fill="#263238"/>
<path d="M88.7173 109.326C88.7185 109.476 88.675 109.623 88.5925 109.748C88.5099 109.873 88.3921 109.971 88.2539 110.029C88.1157 110.086 87.9634 110.102 87.8164 110.073C87.6694 110.044 87.5344 109.972 87.4284 109.866C87.3225 109.76 87.2505 109.625 87.2215 109.478C87.1926 109.331 87.208 109.179 87.2658 109.04C87.3237 108.902 87.4214 108.784 87.5464 108.702C87.6714 108.619 87.8182 108.576 87.968 108.577C88.1663 108.579 88.356 108.658 88.4962 108.798C88.6364 108.938 88.7158 109.128 88.7173 109.326Z" fill="#263238"/>
<path d="M87.0471 107.759L88.5229 106.884C88.5229 106.884 87.9509 106.312 87.3789 106.649C87.2186 106.78 87.1013 106.955 87.0422 107.153C86.983 107.351 86.9847 107.562 87.0471 107.759Z" fill="#263238"/>
<path d="M90.6047 114.4C91.4635 114.462 92.318 114.232 93.03 113.748C93.03 113.748 93.1959 115.029 92.1263 115.269C91.8112 115.323 91.4871 115.266 91.2096 115.108C90.932 114.949 90.7182 114.699 90.6047 114.4Z" fill="#F28F8F"/>
<path d="M99.1905 112.049C99.1641 111.423 99.2794 110.799 99.5279 110.224C99.648 109.866 99.8709 109.55 100.169 109.317C100.467 109.084 100.827 108.944 101.204 108.915C103.132 108.863 103.395 110.722 103.366 111.386C103.297 113.102 101.89 115.001 99.2705 115.075L99.1905 112.049Z" fill="#FFA8A7"/>
<path d="M92.9214 120.12L90.8908 122.757C90.6627 123.054 90.5023 123.397 90.4207 123.762C90.3391 124.127 90.3383 124.506 90.4184 124.872C90.4985 125.237 90.6575 125.581 90.8844 125.879C91.1112 126.176 91.4004 126.421 91.7317 126.595C92.632 127.066 93.668 127.209 94.6624 127.001C95.6568 126.792 96.5478 126.244 97.1828 125.451L99.7969 122.185L92.9214 120.12Z" fill="#FFA8A7"/>
<path d="M92.8814 151.809L87.1614 154.938C86.2817 154.872 85.3984 154.872 84.5187 154.938C83.5006 155.063 80.8007 155.555 80.1029 155.584C79.405 155.613 80.0743 156.917 81.9047 156.802C81.9047 156.802 77.7806 158.69 77.6318 159.823C77.4831 160.955 80.938 163.529 83.8209 162.111C84.5738 161.672 85.3844 161.341 86.229 161.127C88.0071 160.875 89.6625 160.075 90.9652 158.839L95.7871 157.294C95.7871 157.294 97.9035 152.301 92.8814 151.809Z" fill="#FFA8A7"/>
<path d="M104.178 124.021C104.178 124.021 100.672 126.412 101.273 133.848C101.622 138.347 101.622 142.866 101.273 147.364L92.8757 151.809C93.7764 152.408 94.511 153.225 95.011 154.184C95.5111 155.143 95.7604 156.213 95.7357 157.294C95.7357 157.294 107.793 154.812 108.514 152.003C109.235 149.195 109.498 135.758 109.498 133.425C109.498 131.091 108.56 125.886 104.178 124.021Z" fill="#2AB7CA"/>
<path opacity="0.3" d="M104.178 124.021C104.178 124.021 100.672 126.412 101.273 133.848C101.622 138.347 101.622 142.866 101.273 147.364L92.8757 151.809C93.7764 152.408 94.511 153.225 95.011 154.184C95.5111 155.143 95.7604 156.213 95.7357 157.294C95.7357 157.294 107.793 154.812 108.514 152.003C109.235 149.195 109.498 135.758 109.498 133.425C109.498 131.091 108.56 125.886 104.178 124.021Z" fill="#F7F8FC"/>
<path d="M101.278 147.364C102.202 147.345 103.121 147.512 103.978 147.856C103.207 147.257 102.295 146.863 101.33 146.712L101.278 147.364Z" fill="#2AB7CA"/>
<path opacity="0.1" d="M101.278 147.364C102.202 147.345 103.121 147.512 103.978 147.856C103.207 147.257 102.295 146.863 101.33 146.712L101.278 147.364Z" fill="#F7F8FC"/>
<path d="M49.2206 138.63L51.8403 155.79C51.8376 155.799 51.8376 155.809 51.8403 155.819L77.8949 170.931C77.9013 170.934 77.9084 170.935 77.9155 170.935C77.9226 170.934 77.9294 170.932 77.9352 170.927C77.9411 170.923 77.9457 170.918 77.9487 170.911C77.9516 170.905 77.9528 170.898 77.9521 170.891L75.4067 154.24C75.3524 153.888 75.2218 153.552 75.0242 153.255C74.8267 152.959 74.5668 152.709 74.2627 152.524L50.376 137.852C50.2512 137.773 50.1061 137.732 49.9584 137.734C49.8108 137.736 49.6669 137.781 49.5444 137.864C49.4219 137.946 49.326 138.063 49.2685 138.199C49.211 138.335 49.1944 138.485 49.2206 138.63Z" fill="#5C6B73"/>
<path d="M77.9121 170.936L91.8232 162.877C92.1441 162.691 92.4108 162.424 92.5964 162.103C92.7821 161.782 92.8803 161.418 92.8814 161.047L77.792 169.752L77.9121 170.936Z" fill="#263238"/>
<path d="M64.2928 155.172C64.2928 156.402 63.4348 156.888 62.3709 156.282C61.8115 155.917 61.346 155.425 61.012 154.847C60.6781 154.269 60.4852 153.62 60.449 152.953C60.449 151.729 61.3127 151.237 62.3709 151.843C62.9306 152.208 63.3964 152.699 63.7303 153.278C64.0643 153.856 64.257 154.505 64.2928 155.172Z" fill="#37474F"/>
<path opacity="0.2" d="M89.947 137.743C89.947 137.743 95.2037 139.173 97.9951 135.227C97.9951 135.227 96.1875 140.323 89.947 137.743Z" fill="#0F1020"/>
</svg>
