<svg width="18" height="18" viewBox="0 0 18 18" fill="none" xmlns="http://www.w3.org/2000/svg">
<path d="M9 1.6875C7.55373 1.6875 6.13993 2.11637 4.9374 2.91988C3.73486 3.72339 2.7976 4.86544 2.24413 6.20163C1.69067 7.53781 1.54586 9.00811 1.82801 10.4266C2.11017 11.8451 2.80661 13.148 3.82928 14.1707C4.85196 15.1934 6.15492 15.8898 7.57341 16.172C8.99189 16.4541 10.4622 16.3093 11.7984 15.7559C13.1346 15.2024 14.2766 14.2651 15.0801 13.0626C15.8836 11.8601 16.3125 10.4463 16.3125 9C16.3103 7.06129 15.5391 5.20263 14.1682 3.83176C12.7974 2.46088 10.9387 1.68974 9 1.6875ZM12.4827 7.71954L8.3573 11.657C8.25241 11.7568 8.11317 11.8125 7.96839 11.8125C7.82361 11.8125 7.68436 11.7568 7.57947 11.657L5.51734 9.68829C5.4096 9.58509 5.34724 9.44335 5.34393 9.2942C5.34063 9.14505 5.39666 9.00069 5.49973 8.89283C5.60279 8.78496 5.74445 8.72241 5.89359 8.71892C6.04274 8.71543 6.18717 8.77128 6.29517 8.87421L7.96839 10.4722L11.7048 6.90546C11.8128 6.80253 11.9573 6.74668 12.1064 6.75017C12.2556 6.75366 12.3972 6.81621 12.5003 6.92408C12.6033 7.03194 12.6594 7.1763 12.6561 7.32545C12.6528 7.4746 12.5904 7.61634 12.4827 7.71954Z" fill="#22AA3A"/>
</svg>
