<svg width="55" height="55" viewBox="0 0 55 55" fill="none" xmlns="http://www.w3.org/2000/svg">
<rect width="55" height="55" rx="10" fill="#D6FAFF"/>
<g clip-path="url(#clip0)">
<path d="M40.8333 26.8333C40.5239 26.8333 40.2272 26.9562 40.0084 27.175C39.7896 27.3938 39.6667 27.6906 39.6667 28C39.6761 30.7128 38.7431 33.3447 37.0271 35.4458C35.3111 37.547 32.9186 38.9869 30.2585 39.5194C27.5985 40.052 24.836 39.6442 22.4434 38.3657C20.0507 37.0872 18.1763 35.0173 17.1407 32.51C16.105 30.0026 15.9724 27.2134 16.7654 24.619C17.5583 22.0247 19.2278 19.7863 21.4883 18.2864C23.7488 16.7866 26.4601 16.1184 29.1587 16.3961C31.8572 16.6738 34.3756 17.8801 36.2833 19.8088C36.2449 19.8193 36.206 19.8275 36.1667 19.8333H32.6667C32.3572 19.8333 32.0605 19.9562 31.8417 20.175C31.6229 20.3938 31.5 20.6906 31.5 21C31.5 21.3094 31.6229 21.6062 31.8417 21.825C32.0605 22.0437 32.3572 22.1667 32.6667 22.1667H36.1667C37.0949 22.1667 37.9851 21.7979 38.6415 21.1415C39.2979 20.4852 39.6667 19.5949 39.6667 18.6667V15.1667C39.6667 14.8572 39.5437 14.5605 39.3249 14.3417C39.1061 14.1229 38.8094 14 38.5 14C38.1906 14 37.8938 14.1229 37.675 14.3417C37.4562 14.5605 37.3333 14.8572 37.3333 15.1667V17.5758C34.9446 15.4403 31.8954 14.1892 28.6951 14.0316C25.4949 13.874 22.3375 14.8195 19.7506 16.7101C17.1636 18.6006 15.3039 21.3217 14.4821 24.4187C13.6603 27.5156 13.9262 30.8008 15.2354 33.7252C16.5446 36.6497 18.8178 39.0363 21.6751 40.4861C24.5324 41.936 27.8008 42.3614 30.934 41.6911C34.0673 41.0209 36.8756 39.2957 38.8897 36.8037C40.9038 34.3118 42.0017 31.2041 42 28C42 27.6906 41.8771 27.3938 41.6583 27.175C41.4395 26.9562 41.1427 26.8333 40.8333 26.8333Z" fill="#2AB7CA"/>
<path d="M28 21C27.6906 21 27.3938 21.1229 27.175 21.3417C26.9562 21.5605 26.8333 21.8572 26.8333 22.1667V28C26.8334 28.3094 26.9563 28.6061 27.1751 28.8248L30.6751 32.3248C30.8952 32.5373 31.1899 32.6549 31.4958 32.6523C31.8017 32.6496 32.0943 32.5269 32.3106 32.3106C32.5269 32.0943 32.6496 31.8017 32.6523 31.4958C32.6549 31.1899 32.5373 30.8952 32.3248 30.6752L29.1666 27.517V22.1667C29.1666 21.8572 29.0437 21.5605 28.8249 21.3417C28.6061 21.1229 28.3094 21 28 21Z" fill="#2AB7CA"/>
</g>
<defs>
<clipPath id="clip0">
<rect width="28" height="28" fill="white" transform="translate(14 14)"/>
</clipPath>
</defs>
</svg>
