<svg width="57" height="57" viewBox="0 0 57 57" fill="none" xmlns="http://www.w3.org/2000/svg">
<path d="M44.5378 49.2373H35.3251H32.8443H32.3085V36.88H36.35C37.375 36.88 37.9806 35.7153 37.3749 34.8767L29.5133 23.9985C29.0125 23.2997 27.9759 23.2997 27.4751 23.9985L19.6134 34.8767C19.0078 35.7153 19.6018 36.88 20.6383 36.88H24.6798V49.2373H24.1441H21.6633H10.983C4.86841 48.8996 0 43.1809 0 36.9848C0 32.7104 2.31774 28.9833 5.75358 26.9684C5.43911 26.1182 5.27605 25.2097 5.27605 24.2547C5.27605 19.8871 8.80507 16.3581 13.1727 16.3581C14.1161 16.3581 15.0245 16.5211 15.8747 16.8356C18.4021 11.478 23.8529 7.76267 30.1888 7.76267C38.3882 7.77432 45.1434 14.052 45.9121 22.0534C52.2131 23.1366 57 28.9717 57 35.5755C57 42.6335 51.5027 48.7482 44.5378 49.2373Z" fill="#2AB7CA"/>
</svg>
